<svg id="line-start" width="6" height="141" viewBox="0 0 6 141" fill="none" xmlns="http://www.w3.org/2000/svg">
 <path fillrule="evenodd" cliprule="evenodd" d="M3.04637 1.57037C3.03924 1.68254 3.04637 1.85079 3.02497 1.85079C3.02497 1.73862 3.01071 1.68254 3.01071 1.57037C3.03924 1.34603 3.02497 0.841268 3.02497 0.392589C2.83952 -0.0560899 2.6612 -0.0560916 2.49002 0.504757C2.44722 -0.168261 2.42583 0.560845 2.36876 -3.36532e-06C2.38303 0.560845 2.42583 0.953432 2.44009 1.57037C2.36876 1.40211 2.25464 1.51428 2.26177 0.785181C2.19045 0.673012 2.18331 1.00952 2.15478 1.17777C2.05493 0.44867 1.86234 0.841268 1.72682 0.673013C1.71969 0.841268 1.70542 0.953436 1.69116 1.06561C1.64123 0.841266 1.60557 1.17778 1.52711 0.785181C1.52711 1.12169 1.52711 1.40211 1.5485 1.57037C1.51284 1.40211 1.48431 1.68254 1.46291 1.28994C1.40585 1.68254 1.33452 1.51429 1.2846 2.07513C1.32026 2.07513 1.29886 2.52381 1.34166 2.46773C1.38445 2.29947 1.32026 2.13122 1.36305 2.07513C1.39872 2.13122 1.37732 2.5799 1.43438 2.46773C1.43438 2.24339 1.44865 2.01905 1.47005 1.96297C1.48431 2.52382 1.53424 2.29947 1.57704 2.07513C1.64836 2.97249 1.5485 3.25291 1.50571 3.86985C1.44865 3.64551 1.44865 3.53334 1.42012 3.98202C1.35592 3.25291 1.19187 4.37461 1.09915 3.86985C1.07775 4.0381 1.08488 4.37461 1.04922 4.37461C0.97789 4.15027 0.692582 4.54287 0.642653 5.55239C0.749644 5.77673 0.828103 5.83282 0.892297 5.27197C0.999288 5.72065 1.04922 4.93546 1.1776 5.1598C1.1776 5.72065 1.13481 5.94498 1.10628 6.33758C1.07061 6.39366 1.07061 6.16932 1.05635 6.05715C1.04922 6.28149 1.07775 6.33758 1.07775 6.56192C0.942226 6.50584 0.892297 7.12277 0.756776 7.06668C0.735378 8.07621 0.564194 7.23494 0.542795 8.24447C0.664051 7.85188 0.906562 8.02012 1.00642 7.45928C1.02069 7.7397 1.09201 7.57145 1.09201 7.85188C1.04208 9.64659 0.628388 8.8614 0.499999 10.4318C0.571326 10.8244 0.642653 10.3196 0.678316 10.0392C0.749643 10.3196 0.799572 10.4318 0.856633 10.1514C1.05635 11.1048 0.671183 11.4974 0.585591 12.0582C0.606989 12.0582 0.606989 12.2826 0.606989 12.4508C0.664051 12.2265 0.692582 12.3387 0.71398 12.7313C0.735378 11.9461 0.828103 13.0117 0.892297 12.3387C0.899429 12.1143 0.870899 11.6096 0.906562 11.5535C0.970756 11.6096 0.956491 12.0022 0.942226 12.3387C0.977889 12.563 1.02069 12.4508 1.02782 12.6191C0.999287 13.0678 0.935093 13.236 0.906562 13.6286C0.863766 13.4604 0.892296 13.3482 0.870898 13.236C0.835235 13.909 0.785306 13.6286 0.692581 13.7408C0.706847 14.1895 0.649785 14.4138 0.706847 14.526C0.728245 13.853 0.835235 14.7503 0.906562 14.526C0.942225 14.1895 0.885164 13.909 0.92796 13.7408C0.985021 13.9651 0.935093 14.5821 0.963623 15.0307C0.913695 15.0868 0.870898 15.0868 0.835235 15.5355C0.728245 15.199 0.713979 15.9842 0.585591 16.0403C0.564193 16.2646 0.564193 16.6572 0.549927 16.9376C0.599856 17.218 0.649785 16.6011 0.692581 16.4329C0.721112 16.7694 0.799572 16.4329 0.813837 16.3207C0.813837 16.6572 0.813837 16.9376 0.8495 16.9376C0.885164 16.7133 0.842368 16.7133 0.8495 16.3207C0.906562 16.4889 0.892297 16.0963 0.920827 16.0403C0.906562 16.9376 0.992154 15.872 1.00642 16.3207C0.878031 17.2741 0.706846 17.8911 0.578458 18.9006C0.671183 19.0128 0.706846 18.5641 0.828102 18.7884C0.835235 18.6202 0.806704 18.1154 0.8495 18.1715C0.856633 18.4519 0.899429 18.3958 0.899429 18.6762C0.835235 18.5641 0.870898 19.0688 0.885164 19.181C0.785306 19.3493 0.8495 19.854 0.885163 19.9662C0.870898 20.2466 0.813836 20.3027 0.828102 20.8636C0.856632 20.9196 0.870898 20.6953 0.885163 20.8636C0.806704 21.3122 0.885163 21.2001 0.863765 22.1535C0.842367 22.2096 0.820969 22.3779 0.8495 22.4339C0.856633 22.0974 0.927959 22.2096 0.942225 21.9292C0.906561 22.5461 0.985021 24.2847 0.8495 23.7239C0.820969 24.1165 0.863765 24.1726 0.828101 24.5091C0.885163 24.6773 0.920826 24.0604 0.935092 24.3969C0.935092 24.6212 0.878031 24.5091 0.87803 24.7895C0.942225 24.9017 0.87803 25.126 0.913694 25.5747C0.892296 25.6869 0.863765 25.7429 0.820969 25.6869C0.849499 26.6403 0.735377 27.7059 0.806703 28.3789C0.835234 28.435 0.849499 28.2107 0.856632 28.3789C0.849499 28.6594 0.828101 28.8837 0.842367 29.2763C0.813836 29.2202 0.813836 29.052 0.792438 28.9959C0.813836 30.0054 0.842366 31.6879 0.77104 32.361C0.842366 32.8096 0.792437 33.4266 0.756774 33.7631C0.856631 34.0996 0.79957 35.1091 0.806703 35.5578C0.813835 35.3895 0.828101 35.2774 0.842366 35.1652C0.842366 35.2774 0.856631 35.3335 0.856631 35.4456C0.792437 35.7261 0.856631 35.5578 0.856631 35.8382C0.856631 36.8477 0.792437 38.6425 0.913693 39.3155C0.885162 39.3155 0.856631 39.2594 0.842366 39.2033C0.885162 40.0446 0.849498 40.4372 0.820967 41.3906C0.878029 41.3345 0.849498 41.8393 0.892294 41.8954C0.870896 42.1758 0.849498 42.3441 0.820967 42.5123C0.842365 42.8488 0.885162 42.2319 0.913692 42.6245C0.820967 42.9049 0.927958 43.4658 0.878029 43.9144C0.835233 43.7462 0.892294 43.2975 0.856631 43.2975C0.813834 43.5779 0.813835 44.7557 0.878029 44.4753C0.863763 44.4192 0.927957 44.3631 0.963621 44.0827C0.956488 44.4753 0.892294 44.4753 0.892294 44.9801C0.899427 45.2605 0.927957 45.3166 0.949355 45.4848C0.906559 45.3726 0.906559 46.1018 0.949355 45.9896C1.00642 46.0457 0.906559 45.597 0.963621 45.597C1.00642 45.6531 1.07061 45.597 1.07061 45.9896C1.02781 46.0457 1.03495 45.7652 0.985019 45.8774C0.949355 46.1017 0.985019 46.2139 0.985019 46.4943C0.949355 46.2139 0.920824 46.6626 0.892294 46.8869C0.920824 46.943 0.999284 46.7187 0.999284 46.9991C0.885161 47.1113 0.949355 48.1208 0.949355 48.7938C1.04208 49.1303 1.00642 49.1864 1.09201 49.6912C1.03495 49.9155 1.02068 49.1864 1.00642 49.579C0.999284 49.6351 1.01355 49.9716 1.00642 50.0838C0.927957 50.1399 0.985018 49.7473 0.956488 49.6912C0.956488 49.8594 0.913692 49.8033 0.885161 49.8033C0.899426 50.4764 0.892293 50.9811 0.970753 51.3176C0.992151 50.9811 0.927957 50.7007 0.970753 50.7007C0.985018 51.0372 1.02781 51.9346 0.970753 51.9907C0.949355 51.6542 0.977886 51.5981 0.956488 51.4859C0.949355 51.7663 0.892293 51.5981 0.885161 51.8785C0.949355 51.8785 0.949355 53.1124 0.992151 52.4954C0.956487 53.3928 0.970752 54.3462 1.00642 54.7949C1.06348 54.6266 1.00642 54.4584 1.04208 54.2901C1.06348 54.4584 1.05634 54.851 1.06348 55.1875C0.985018 54.9632 0.942222 55.7483 1.00642 55.8044C0.999283 55.4679 1.07774 55.1314 1.09201 55.4118C1.03495 55.7483 1.01355 56.4774 1.04208 57.0944C1.01355 57.1505 0.970752 57.1505 0.956487 57.3748C1.01355 57.3187 1.00642 57.7674 1.04208 57.8796C0.985018 57.9917 1.00642 57.9917 0.970752 57.7674C0.999283 58.2161 0.96362 58.5526 0.956487 59.0573C0.99215 59.1134 0.99215 58.8891 1.00642 58.7769C1.04208 59.2256 1.04208 59.1695 1.06348 59.7865C1.04921 59.6743 0.977885 59.4499 0.99215 59.8986C1.07774 59.7304 1.07061 60.2912 1.1348 60.2912C1.12054 59.8986 1.12054 60.0108 1.14907 59.7865C1.10627 59.8425 1.08487 59.7304 1.07774 59.506C1.11341 59.3378 1.07061 58.6087 1.1348 58.6087C1.14907 59.2256 1.26319 58.9452 1.27746 59.0013C1.2204 59.1134 1.29886 59.2817 1.29172 59.3939C1.25606 59.2256 1.20613 59.6182 1.25606 59.6743C1.25606 59.506 1.29886 59.5621 1.32739 59.5621C1.28459 59.8986 1.33452 60.179 1.36305 60.3473C1.32025 60.3473 1.27746 60.3473 1.27032 60.6277C1.29886 60.796 1.32025 61.0203 1.36305 61.1325C1.34165 61.1325 1.32025 61.1886 1.30599 61.2447C1.28459 60.9082 1.26319 60.5156 1.199 60.4595C1.17047 61.0764 1.2204 61.4129 1.30599 61.469C1.26319 61.8055 1.34165 61.7494 1.32025 62.2542C1.29886 62.2542 1.29886 62.4224 1.27032 62.3664C1.26319 61.9738 1.30599 61.9738 1.27032 61.7494C1.199 61.5251 1.23466 62.0859 1.199 62.142C1.199 62.0298 1.17047 61.9738 1.16333 62.142C1.24179 62.142 1.2204 62.8711 1.25606 63.1515C1.27032 62.9833 1.29172 62.9272 1.32739 62.8711C1.32739 63.1515 1.22753 63.3759 1.27746 63.4881C1.31312 63.1515 1.27746 63.7124 1.27746 63.8806C1.34165 63.3759 1.45577 63.6563 1.51284 63.7685C1.45577 63.8246 1.47717 64.4415 1.44151 64.6658C1.42724 64.6658 1.42011 64.6658 1.40585 64.6658C1.38445 64.2732 1.45577 63.9367 1.40585 63.7685C1.39871 63.8806 1.40585 64.0489 1.39158 64.0489C1.38445 63.9367 1.39158 63.7685 1.37731 63.7685C1.35592 64.8902 1.40585 65.3949 1.34165 65.9558C1.42011 65.9558 1.31312 66.741 1.37731 66.9653C1.39871 66.8531 1.38445 66.5166 1.42724 66.5727C1.44864 66.6849 1.43438 67.1897 1.40585 67.3579C1.37731 67.0775 1.35592 67.4701 1.33452 67.0775C1.32739 67.3579 1.33452 67.5823 1.35592 67.6944C1.42724 67.3579 1.47004 67.5822 1.51284 67.0775C1.5271 67.4701 1.4843 67.4701 1.49857 67.8627C1.44151 67.4701 1.44151 68.76 1.37731 68.2553C1.36305 68.3674 1.30599 68.8722 1.35592 69.0405C1.32739 68.7039 1.41298 68.6479 1.40585 68.9283C1.37018 68.9283 1.38445 69.2648 1.33452 69.2087C1.33452 69.0405 1.30599 69.0965 1.29885 68.9283C1.32739 68.9844 1.29885 68.4235 1.28459 68.4235C1.27746 69.0405 1.24893 68.9283 1.199 68.7039C1.21326 69.2648 1.32025 69.2087 1.35592 69.6013C1.31312 69.5452 1.32025 69.8256 1.27032 69.7135C1.25606 70.3304 1.32739 70.3304 1.34165 70.723C1.29885 70.723 1.24893 71.3399 1.29172 71.5082C1.39158 71.2838 1.32739 70.2182 1.38445 69.9378C1.40585 70.4987 1.46291 69.7135 1.56276 70.3304C1.5699 71.0034 1.42011 70.3865 1.49144 71.1156C1.5057 70.7791 1.54137 71.1156 1.51284 71.2278C1.61983 71.2278 1.71255 70.1621 1.77674 71.1156C1.74821 71.1156 1.61983 71.1717 1.65549 71.7325C1.69829 71.396 1.68402 71.8447 1.65549 72.0129C1.68402 72.0129 1.71968 71.9569 1.72682 72.1251C1.72682 72.4055 1.68402 72.4616 1.65549 72.5177C1.71255 72.7981 1.62696 73.0786 1.61983 73.3029C1.69828 72.7981 1.70542 73.1346 1.74108 72.686C1.74821 72.8542 1.76248 72.742 1.77674 72.686C1.79101 73.359 1.75535 73.6394 1.74108 74.0881C1.93366 74.2563 1.65549 75.4341 1.74108 75.4902C1.77674 75.4341 1.73395 75.2659 1.76248 75.2098C1.79101 75.4341 1.81954 75.0415 1.83381 75.4902C1.79814 75.5463 1.81954 75.995 1.77674 75.995C1.71968 75.995 1.67689 76.0511 1.65549 76.2754C1.66975 76.3315 1.67689 76.3876 1.67689 76.5558C1.73395 76.7802 1.74821 76.0511 1.76248 76.4437C1.77674 76.7802 1.67689 76.8923 1.72682 77.0606C1.76961 76.6119 1.70542 77.7897 1.74108 77.341C1.74821 77.1728 1.76248 77.0606 1.77674 76.9484C1.78388 77.1728 1.80527 76.8923 1.81241 77.0606C1.76961 77.341 1.81954 77.5653 1.81241 77.9579C1.76248 78.4627 1.61269 78.5188 1.69115 79.1357C1.69115 78.9114 1.70542 78.8553 1.74108 78.8553C1.74108 79.1357 1.74108 79.3601 1.74108 79.6405C1.81241 79.8648 1.74821 79.0796 1.79814 79.1357C1.79814 79.4161 1.84807 79.304 1.83381 79.6405C1.80527 79.6405 1.76961 79.6405 1.77674 79.9209C1.81241 80.3135 1.86947 79.4722 1.88373 79.8087C1.80527 79.9209 1.90513 80.5378 1.83381 80.5939C1.81241 80.5939 1.80527 80.4257 1.79814 80.3135C1.81241 80.2574 1.83381 80.3135 1.83381 80.2013C1.77674 80.2013 1.76961 80.5939 1.74108 80.8183C1.75535 81.0987 1.81954 80.9865 1.83381 81.323C1.80527 81.4913 1.75535 81.4352 1.76248 81.8278C1.80527 81.9961 1.86947 82.1082 1.88373 82.4447C1.89087 83.286 1.89087 83.3421 1.90513 84.3516C1.8338 84.3516 1.898 84.4638 1.88373 84.7442C1.8338 84.632 1.84807 85.0246 1.81241 85.0246C1.82667 85.5855 1.81954 85.7537 1.86947 86.2024C1.898 86.1463 1.86947 85.5855 1.90513 85.5855C1.90513 85.7537 1.90513 85.922 1.90513 86.0902C1.94793 86.2585 1.94793 86.0342 1.97646 86.3707C1.98359 86.2024 1.95506 85.6977 1.99072 85.7537C2.00499 85.7537 2.01212 85.7537 2.02639 85.7537C1.97646 86.6511 2.10485 87.6606 1.97646 88.0532C2.02639 88.1654 2.04779 88.5019 2.04779 88.9506C1.99786 88.9506 2.01212 88.7262 1.97646 88.9506C2.02639 89.904 1.9194 89.7358 1.94079 90.7453C1.99072 91.0257 1.96933 91.3622 1.99786 92.0352C1.97646 92.0352 1.94793 92.0352 1.92653 92.0352C1.91226 92.4278 1.96933 92.3157 1.98359 92.54C1.96219 92.7643 1.93366 92.9326 1.91226 93.1569C1.96933 93.2691 1.96933 92.9326 1.99786 92.8765C1.99786 93.7178 2.04065 92.9326 2.04778 92.7643C2.05492 93.5495 2.02639 93.7178 2.06205 94.1665C2.01925 94.2226 2.01925 94.5591 1.99072 94.6712C1.93366 94.503 2.02639 93.9421 1.95506 94.0543C1.88373 95.176 1.91226 96.8585 1.97646 97.9242C1.97646 98.1485 1.92653 97.9802 1.9194 98.2046C1.96219 98.5411 1.92653 99.4384 1.99072 99.6067C1.96932 98.7654 1.97646 99.2702 2.02639 99.1019C1.99786 99.0459 2.00499 98.8215 1.99072 98.7093C2.06918 98.7654 2.07632 98.3167 2.13338 98.7093C2.16191 98.485 2.14051 97.9242 2.2047 97.9242C2.27603 99.158 1.99072 98.9337 2.11911 99.7189C2.16904 99.5506 2.11911 99.2702 2.19044 99.1019C2.19044 99.7189 2.19044 100.28 2.19044 100.897C2.14764 100.841 2.12624 100.953 2.11911 101.177C2.14764 101.177 2.18331 101.121 2.19044 101.289C2.16904 101.626 2.17617 101.682 2.11911 101.57C2.13338 101.962 2.11911 102.074 2.13338 102.187C2.14051 102.018 2.15477 101.906 2.19044 101.906C2.2047 104.093 2.26176 105.664 2.2261 107.795C2.2689 107.907 2.30456 107.29 2.33309 107.683C2.31883 107.851 2.29743 107.907 2.26176 107.963C2.2475 110.599 2.31169 111.721 2.35449 114.413C2.33309 114.469 2.31169 114.525 2.30456 114.694C2.40442 115.086 2.33309 115.535 2.35449 116.096C2.41868 116.152 2.44008 115.927 2.47574 115.815C2.47574 115.983 2.49714 115.983 2.49714 116.208C2.43295 116.264 2.39015 116.432 2.35449 116.713C2.43295 116.937 2.38302 117.554 2.44008 117.89C2.42581 117.834 2.49714 117.554 2.42581 118.003C2.49714 118.227 2.52567 117.946 2.58273 118.283C2.5542 117.778 2.62553 118.003 2.63266 117.778C2.61126 117.666 2.597 117.498 2.597 117.273C2.61126 117.273 2.6184 117.161 2.63266 117.161C2.69686 117.442 2.72539 117.386 2.77532 117.049C2.77532 117.386 2.80385 117.442 2.83238 117.554C2.83238 117.386 2.82525 117.105 2.85378 117.049C2.9037 117.161 2.88944 117.722 2.93937 117.834C2.89657 117.778 2.86804 117.61 2.86804 118.115C2.9251 118.059 2.98216 118.059 2.93937 118.619C2.91084 118.619 2.93224 118.283 2.9037 118.227C2.86804 118.844 2.99643 118.788 3.02496 119.124C3.03209 119.461 2.96077 119.236 2.95363 119.517C2.9679 119.853 3.01069 119.966 3.04636 120.134C3.01069 120.302 2.96077 120.302 2.97503 120.751C3.03209 120.47 3.11055 120.134 3.16761 120.639C3.07489 119.909 3.02496 119.349 3.18901 119.629C3.23181 119.461 3.15335 119.124 3.20328 119.012C3.25321 119.573 3.24607 119.853 3.21754 120.526C3.30313 120.639 3.22468 121.255 3.28887 121.424C3.32453 120.975 3.25321 120.078 3.3602 120.414C3.35306 120.078 3.33167 119.741 3.32453 119.405C3.33167 119.292 3.41726 119.068 3.37446 119.012C3.3388 119.068 3.3388 119.405 3.28887 119.292C3.28887 119.18 3.28887 119.012 3.28887 118.9C3.31027 119.068 3.35306 119.068 3.37446 118.9C3.38873 118.115 3.38159 116.937 3.37446 116.32C3.37446 116.432 3.37446 116.488 3.37446 116.6C3.34593 116.208 3.296 116.544 3.26747 116.32C3.26747 116.208 3.26747 116.152 3.26747 116.04C3.36733 116.32 3.43152 115.423 3.50285 116.152C3.51712 115.759 3.45292 115.927 3.46719 115.535C3.49572 115.647 3.55278 115.591 3.57418 115.815C3.46005 116.264 3.53138 117.61 3.57418 118.395C3.57418 117.946 3.55278 117.722 3.57418 117.498C3.60984 117.778 3.63124 117.498 3.65977 117.386C3.63124 116.376 3.58844 115.927 3.68117 115.198C3.65264 115.198 3.63837 115.086 3.62411 114.918C3.65264 114.862 3.62411 114.301 3.65977 114.301C3.68117 114.806 3.78816 114.077 3.78816 114.806C3.78103 115.086 3.75963 115.086 3.7311 114.918C3.72396 115.423 3.77389 115.591 3.71683 115.815C3.73823 115.815 3.76676 115.815 3.76676 115.927C3.74536 115.983 3.65977 116.264 3.71683 116.432C3.78103 116.152 3.70257 117.161 3.78816 116.937C3.79529 117.33 3.75249 117.33 3.78816 117.554C3.76676 117.554 3.76676 117.442 3.75249 117.442C3.76676 117.834 3.83095 119.124 3.73823 118.451C3.78102 119.517 3.70257 120.639 3.80956 121.255C3.80242 121.816 3.79529 121.368 3.75249 121.76C3.85948 121.872 3.73823 122.938 3.84522 123.162C3.80242 123.275 3.79529 123.667 3.75249 123.779C3.74536 123.555 3.74536 123.218 3.71683 123.162C3.67403 123.331 3.73823 123.667 3.70256 123.667C3.63837 123.611 3.70256 123.331 3.6669 123.275C3.60271 123.499 3.62411 124.733 3.72396 124.564C3.71683 124.284 3.7311 124.06 3.75963 124.06C3.76676 124.228 3.78816 124.396 3.81669 124.452C3.83809 124.116 3.76676 123.891 3.81669 123.835C3.84522 124.116 3.83095 124.677 3.88801 124.733C3.87375 124.733 3.85235 124.733 3.83809 124.733C3.86662 127.649 3.91654 130.509 3.90941 132.585C3.95221 132.529 3.995 132.36 4.00214 132.865C3.95221 132.977 3.95934 132.697 3.90941 132.753C3.90228 133.202 3.995 133.202 3.94508 133.538C3.98787 133.538 4.03067 133.538 4.0378 133.818C3.97361 133.818 3.98787 133.987 3.93081 133.818C3.94508 134.604 3.97361 136.174 3.98074 137.184C4.00927 137.127 4.06633 137.071 4.0806 137.296C4.00927 137.352 4.10199 137.8 4.04493 137.913C4.02353 137.744 4.0378 137.296 3.995 137.296C3.98787 137.52 3.94507 139.147 4.00927 138.978C3.97361 138.978 4.00214 138.53 3.995 138.361C4.02353 138.361 4.06633 137.857 4.0806 138.249C4.06633 138.417 3.995 138.586 4.04493 138.922C4.0806 138.978 4.0806 138.754 4.10199 138.642C4.13052 139.034 4.09486 139.315 4.06633 139.651C4.04493 139.595 4.06633 139.147 4.03067 139.147C4.0164 139.427 3.98787 140.1 4.04493 140.156C4.04493 139.988 4.05207 139.876 4.0806 139.876C4.14479 140.212 4.0806 141.053 4.13766 140.997C4.18759 140.885 4.11626 140.661 4.13766 140.38C4.18759 140.38 4.17332 140.605 4.20898 140.38C4.21612 139.763 4.15906 140.324 4.13766 139.988C4.16619 139.932 4.13052 139.82 4.13766 139.595C4.18759 138.025 4.13052 136.567 4.10199 135.221C4.10199 135.277 4.08773 135.389 4.0806 135.221C4.09486 135.221 4.10199 135.108 4.10199 134.94C4.12339 134.94 4.12339 135.108 4.15192 135.052C4.14479 134.379 4.0806 133.482 4.11626 132.977C4.11626 133.145 4.06633 133.145 4.0592 132.977C4.07346 132.192 4.10913 132.192 4.20185 131.799C4.17332 131.407 4.14479 132.136 4.13053 131.799C4.17332 131.687 4.15906 131.126 4.20185 131.014C4.12339 130.678 4.20898 130.397 4.23752 130.117C4.18045 130.061 4.16619 130.397 4.15192 130.005C4.15192 129.724 4.19472 129.724 4.23752 129.724C4.22325 129.388 4.20185 129.107 4.18045 128.827C4.15906 129.22 4.13766 129.612 4.13053 129.724C4.0806 128.939 4.18759 128.266 4.25891 127.93C4.23752 127.593 4.22325 127.873 4.20185 127.649C4.23038 127.088 4.22325 127.313 4.22325 126.752C4.16619 126.696 4.18759 127.257 4.13053 127.257C4.16619 126.471 4.09486 126.527 4.0806 126.359C4.12339 125.63 4.05207 124.452 4.15192 123.891C4.13766 124.284 4.16619 124.396 4.18759 124.508C4.102 124.845 4.15906 125.237 4.15192 125.91C4.21612 125.91 4.18045 125.237 4.22325 125.125C4.20899 125.125 4.18759 125.125 4.18759 125.013C4.21612 124.284 4.31598 124.452 4.42297 124.508C4.35164 124.116 4.46576 123.891 4.3873 123.611C4.3873 124.004 4.3873 124.34 4.33024 124.228C4.3659 123.499 4.26605 122.77 4.3873 121.928C4.22325 120.47 4.41583 118.844 4.30171 117.666C4.30171 116.6 4.45863 116.376 4.56562 116.881C4.52996 117.442 4.60128 117.386 4.56562 118.059C4.51569 117.722 4.53709 118.395 4.49429 118.451C4.51569 118.059 4.41583 117.89 4.4087 118.171C4.43723 118.283 4.43723 118.619 4.48003 118.676C4.51569 118.395 4.55849 118.844 4.58702 118.395C4.62981 118.676 4.58702 119.517 4.65835 119.573C4.66548 118.227 4.57275 117.834 4.69401 116.208C4.67974 116.6 4.71541 116.656 4.70827 116.993C4.69401 117.049 4.67261 116.993 4.67261 117.105C4.76534 117.273 4.72254 116.544 4.7796 116.488C4.801 116.544 4.81526 116.656 4.81526 116.881C4.76534 117.554 4.76534 118.451 4.85093 119.349C4.72967 119.966 4.90799 121.087 4.82953 121.816C4.85093 121.928 4.89372 121.928 4.91512 122.097C4.93652 121.816 4.95078 121.312 5.02211 121.087C5.04351 120.807 4.97932 120.975 4.99358 120.582C5.01498 120.582 5.02924 120.526 5.04351 120.47C5.03638 119.741 5.02211 119.012 5.04351 118.283C5.02211 118.171 4.98645 118.059 4.97218 117.89C5.00071 117.834 5.00071 117.722 5.02211 117.89C5.03638 117.217 4.95079 117.33 4.93652 117.273C4.95079 116.993 5.03638 117.217 5.02211 116.769C4.94365 116.881 4.87233 116.488 4.8438 115.871C4.86519 115.871 4.86519 115.703 4.89372 115.759C4.83666 116.208 4.95079 116.32 5.01498 116.264C5.00071 115.871 5.00071 116.04 5.01498 115.647C4.97932 115.535 4.95792 116.04 4.94365 115.647C4.95079 115.367 5.07204 115.31 4.99358 114.862C4.98645 114.974 4.96505 115.142 4.95792 114.974C4.97218 114.581 4.99358 114.301 5.00785 113.964C4.95792 113.852 4.95792 112.955 4.98645 112.674C4.90799 112.618 4.87233 112.058 4.80813 112.282C4.8438 111.833 4.8224 110.992 4.7796 111.441C4.79387 111.665 4.73681 112.843 4.86519 112.45C4.87946 112.787 4.89372 113.179 4.85093 113.347C4.83666 113.067 4.79387 112.787 4.7796 113.235C4.80813 113.404 4.85806 113.347 4.85093 113.74C4.82953 114.133 4.81526 113.796 4.7582 114.021C4.8224 114.974 4.78673 115.759 4.7796 116.6C4.74394 116.096 4.66548 115.871 4.61555 115.423C4.65121 115.591 4.70114 115.198 4.65121 115.142C4.61555 115.479 4.65835 115.03 4.65121 114.75C4.59415 114.469 4.59415 115.254 4.57989 114.862C4.61555 114.357 4.67261 114.245 4.67261 114.357C4.70114 114.189 4.62981 113.964 4.69401 113.74C4.65121 113.404 4.60842 113.46 4.63695 112.843C4.57989 112.731 4.57275 112.955 4.52996 112.955C4.55136 112.394 4.44437 112.787 4.45863 112.338C4.52996 112.45 4.58702 112.731 4.67261 112.45C4.65835 112.226 4.61555 112.226 4.60128 112.058C4.65121 112.001 4.63695 111.16 4.61555 110.88C4.60128 111.048 4.58702 110.824 4.54422 110.992C4.54422 109.87 4.4301 110.151 4.43723 109.197C4.4515 109.197 4.4729 109.197 4.48716 109.197C4.4515 108.244 4.4515 106.898 4.38017 106.898C4.40157 106.898 4.40157 106.673 4.40157 106.505C4.41583 106.505 4.43723 106.505 4.4515 106.505C4.46576 105.72 4.38017 105.327 4.4515 104.823C4.4301 104.823 4.40157 104.823 4.40157 104.71C4.4515 104.318 4.39444 103.925 4.4515 103.533C4.37304 103.14 4.39444 102.804 4.40157 101.962C4.35877 101.794 4.33024 102.355 4.30884 101.962C4.33024 101.57 4.37304 101.289 4.38017 100.784C4.33738 100.897 4.31598 100.224 4.29458 100.672C4.34451 100.953 4.26605 100.953 4.25892 100.672C4.30171 101.962 4.23039 102.747 4.33024 103.757C4.30171 103.701 4.30171 103.533 4.28031 103.477C4.30171 104.093 4.30884 104.935 4.26605 105.159C4.30884 105.44 4.28745 106.113 4.31598 106.449C4.21612 106.786 4.32311 107.739 4.33024 108.132C4.30171 108.076 4.30171 107.907 4.28031 107.851C4.26605 108.468 4.21612 108.917 4.28031 109.253C4.25178 109.197 4.22325 109.87 4.20899 109.534C4.20899 109.478 4.20899 109.365 4.18759 109.422C4.20185 109.758 4.27318 110.768 4.17332 110.824C4.20899 110.095 4.17332 109.534 4.13766 109.029C4.16619 109.029 4.19472 109.029 4.23038 109.029C4.21612 108.244 4.18759 108.188 4.24465 107.627C4.18759 107.795 4.17332 107.739 4.13766 107.515C4.10913 108.132 4.09486 108.58 4.08773 109.085C4.07347 109.029 4.05207 109.085 4.05207 108.973C4.0806 108.244 4.0164 108.019 4.08773 107.29C4.00214 107.346 4.0592 106.281 4.00214 106.113C3.98787 106.729 3.95221 106 3.93081 106.113C3.78816 106.729 3.98074 109.309 3.85949 109.59C3.81669 108.412 3.92368 107.683 3.78816 106.898C3.77389 107.178 3.7311 107.234 3.71683 107.515C3.73823 107.851 3.77389 107.29 3.78816 107.627C3.78103 108.468 3.71683 109.029 3.78816 109.814C3.63837 109.982 3.84522 110.431 3.71683 111.216C3.81669 111.833 3.6883 112.338 3.78816 112.787C3.78103 113.123 3.74536 113.235 3.73823 113.572C3.75963 113.572 3.78816 113.572 3.78816 113.684C3.75963 113.684 3.78103 114.021 3.75249 114.077C3.71683 113.908 3.69543 114.021 3.63124 113.964C3.59558 114.245 3.68117 114.525 3.61697 114.862C3.57418 114.694 3.53138 114.525 3.54565 113.964C3.65264 114.021 3.50285 113.123 3.63124 113.067C3.57418 113.235 3.52425 112.731 3.50998 113.067C3.52425 113.067 3.53138 113.067 3.54565 113.067C3.55278 113.684 3.51712 114.189 3.50998 114.357C3.44579 114.245 3.43152 113.74 3.38159 113.852C3.50998 113.516 3.36733 112.562 3.47432 112.17C3.50285 112.338 3.61697 112.45 3.61697 112.058C3.60271 112.001 3.59558 111.945 3.60271 111.777C3.55278 112.394 3.44579 111.833 3.35306 111.665C3.3602 110.88 3.42439 111.497 3.46005 111.272C3.44579 111.272 3.43866 111.272 3.43866 111.16C3.44579 111.16 3.46005 111.048 3.43866 111.048C3.41013 111.16 3.32453 111.328 3.36733 110.768C3.26747 110.768 3.33167 111.385 3.296 111.665C3.26034 111.497 3.26747 110.992 3.23894 110.768C3.25321 110.487 3.33167 110.655 3.32453 110.263C3.2746 110.151 3.24607 110.543 3.18188 110.543C3.21041 110.655 3.18901 111.16 3.18188 111.16C3.15335 110.655 3.16048 111.16 3.11055 111.16C3.09629 110.992 3.03923 111.16 3.03923 110.88C3.04636 110.712 3.06062 110.655 3.07489 110.599C3.09629 110.599 3.08916 110.824 3.11055 110.88C3.11769 110.655 3.18188 110.768 3.16761 110.375C3.09629 110.431 3.09629 109.87 3.06062 110.375C3.03209 110.207 3.05349 109.758 3.11055 109.87C3.11769 109.197 3.03923 109.814 3.02496 109.478C3.14622 108.973 3.15335 109.085 3.03923 108.973C3.04636 108.805 3.06062 108.749 3.07489 108.692C3.09629 108.692 3.08916 108.917 3.11055 108.973C3.11769 108.861 3.12482 108.805 3.14622 108.861C3.11055 108.468 3.08916 107.795 3.18188 107.683C3.13195 108.076 3.28174 107.795 3.25321 108.468C3.3388 108.524 3.39586 107.627 3.3602 107.178C3.34593 107.963 3.31027 107.178 3.26747 107.066C3.26747 107.234 3.27461 107.515 3.24607 107.571C3.21754 107.29 3.10342 107.627 3.12482 107.066C3.18901 107.01 3.19615 107.346 3.24607 107.346C3.26747 106.954 3.25321 106.673 3.21041 106.449C3.296 106.337 3.23181 106 3.28174 105.664C3.23181 105.496 3.16762 105.383 3.10342 105.271C3.08916 105.608 3.13908 105.552 3.13908 105.776C3.11769 105.776 3.09629 105.832 3.08202 105.888C3.05349 104.935 2.99643 104.318 3.04636 103.589C3.02496 103.589 2.99643 103.589 2.9893 103.477C3.02496 103.028 3.0107 103.196 2.9893 102.691C3.09629 102.86 3.12482 102.747 3.16762 103.308C3.23181 102.972 3.16048 101.85 3.15335 101.738C3.16048 102.131 3.14622 102.411 3.11769 102.523C3.13195 101.794 3.05349 102.243 3.04636 102.523C3.02496 102.243 2.9893 101.962 2.97503 101.626C2.9893 101.233 3.00356 101.457 3.04636 101.514C3.04636 100.953 3.01783 101.289 2.95364 101.233C2.97503 100.897 2.91797 100.504 2.95364 100.448C2.99643 100.448 3.03923 100.448 3.07489 100.448C3.01783 99.775 2.98217 99.831 2.89657 99.0458C2.95364 98.9898 2.9679 99.2141 3.00356 99.3263C3.02496 98.4289 2.90371 99.2702 2.91084 98.5411C2.9465 98.5411 2.95364 98.7093 2.98217 98.6533C3.01783 98.3728 2.97503 98.4289 2.9679 98.1485C3.06776 98.0363 3.13909 97.3633 3.21041 97.9242C3.25321 97.812 3.296 97.6998 3.33167 97.5316C3.21754 97.7559 3.27461 96.0734 3.16762 95.849C3.16762 96.1294 3.11769 96.0173 3.13195 96.3538C3.16048 96.3538 3.19615 96.3538 3.18901 96.6342C3.14622 96.4099 3.12482 96.8025 3.09629 96.522C3.12482 96.2977 3.07489 95.9612 3.13195 95.7368C3.18901 95.6808 3.19615 95.9612 3.25321 95.849C3.25321 95.5125 3.22468 95.5686 3.25321 95.3442C3.20328 95.2882 3.11055 95.5125 3.09629 95.2321C3.15335 95.2321 3.22468 94.9517 3.27461 94.6151C3.25321 93.5495 3.27461 92.2035 3.31027 91.4183C3.24608 92.0913 3.41726 92.4278 3.34593 93.1009C3.36733 92.8204 3.3174 92.4839 3.31027 92.8204C3.3602 92.9326 3.28887 93.213 3.31027 93.6056C3.3388 93.83 3.40299 93.7178 3.45292 93.7178C3.3816 93.1569 3.50285 92.1474 3.40299 91.6426C3.40299 91.8109 3.41013 92.0913 3.3816 92.1474C3.3174 92.0352 3.38873 91.6427 3.34593 91.2501C3.3816 91.3061 3.48859 90.8575 3.48859 91.5305C3.40299 92.0352 3.49572 93.1569 3.53852 93.213C3.53852 93.5495 3.46719 93.3813 3.46719 93.7178C3.53852 93.886 3.49572 94.503 3.49572 95.0077C3.54565 95.0638 3.58131 94.3908 3.61698 94.7273C3.59558 94.7273 3.57418 94.7834 3.58131 95.0077C3.58131 95.176 3.60984 95.1199 3.61698 95.2882C3.60271 95.2882 3.59558 95.4003 3.58131 95.4003C3.55991 95.0638 3.52425 95.176 3.47432 95.2882C3.44579 94.9517 3.48859 94.6712 3.45292 94.3908C3.42439 94.503 3.3602 94.3908 3.3602 94.7834C3.34593 95.1199 3.44579 94.6712 3.43153 95.0638C3.40299 95.2882 3.42439 95.849 3.34593 95.6808C3.34593 96.0734 3.41726 96.0173 3.39586 96.5781C3.33167 96.4659 3.3174 96.7464 3.28887 96.8585C3.296 96.6342 3.26747 96.522 3.25321 96.7464C3.3174 97.195 3.3602 97.139 3.43153 97.3633C3.46006 96.8585 3.35307 97.3633 3.37446 96.8585C3.41013 97.139 3.43153 96.8585 3.46719 96.7464C3.55991 97.5316 3.30314 98.4289 3.44579 99.2141C3.46719 98.8776 3.37446 98.8215 3.43152 98.7093C3.44579 98.7093 3.45292 98.5972 3.46719 98.5972C3.44579 99.158 3.61697 98.7654 3.55278 99.2141C3.59558 99.3263 3.63837 98.8215 3.65977 99.2141C3.59558 98.9898 3.64551 99.6628 3.60984 99.6067C3.59558 99.2702 3.55278 99.775 3.50285 99.6067C3.53852 99.3824 3.55278 99.0459 3.46719 99.1019C3.50285 99.7189 3.42439 99.4945 3.44579 100.504C3.47432 100.504 3.50285 100.504 3.53138 100.504C3.54565 100.111 3.55991 100.055 3.56705 99.8871C3.61697 99.831 3.72396 99.9993 3.78103 100.28C3.73823 100.56 3.80956 100.504 3.79529 100.897C3.78103 101.514 3.71683 100.953 3.67404 101.289C3.73823 101.514 3.63124 101.457 3.65264 101.794C3.68117 101.85 3.74536 101.682 3.72396 102.074C3.70257 102.074 3.70257 101.906 3.67404 101.962C3.67404 102.131 3.67404 102.299 3.67404 102.467C3.7525 102.523 3.76676 102.187 3.79529 101.962C3.7525 102.187 3.74536 101.514 3.78103 101.57C3.80242 101.57 3.80956 101.738 3.81669 101.85C3.80956 102.074 3.80956 102.411 3.78103 102.467C3.69543 102.355 3.6883 103.252 3.63837 102.972C3.63124 103.589 3.6883 103.028 3.7097 103.364C3.6883 104.093 3.6883 104.15 3.74536 104.374C3.78816 104.935 3.72396 105.159 3.69543 104.654C3.69543 105.44 3.7525 105.888 3.69543 106.561C3.73823 106.673 3.7525 105.944 3.78103 106.449C3.74536 106.729 3.73823 106.842 3.79529 106.954C3.80956 106.673 3.82382 106.393 3.81669 105.944C3.90228 106 3.83809 105.159 3.92368 105.552C3.95221 105.047 3.84522 105.552 3.87375 105.047C3.93081 105.047 3.95934 104.879 3.99501 104.767C3.99501 104.374 3.99501 103.981 4.03067 103.869C4.03067 104.15 4.04494 104.262 4.08773 104.262C4.0592 103.701 4.14479 103.925 4.19472 103.869C4.10913 103.701 4.20185 102.972 4.10913 102.579C4.10913 102.747 4.11626 103.028 4.09486 103.084C4.08773 102.467 4.04494 103.196 4.00214 103.084C4.03067 102.916 4.0164 102.691 3.96648 102.691C3.91655 102.916 4.0378 103.308 3.96648 103.589C3.96648 103.42 3.93795 103.477 3.93081 103.308C3.95934 103.084 3.92368 102.804 3.91655 102.523C3.93795 102.299 4.03067 102.804 4.02354 102.131C3.94508 102.299 3.90941 101.962 3.88088 102.523C3.85949 101.401 3.88088 102.299 3.91655 101.514C3.83096 101.289 3.82382 100.168 3.84522 99.9993C3.89515 100.448 3.95221 99.6628 4.0592 99.6067C4.03067 100.448 4.20185 99.5506 4.13053 100.111C4.29458 99.775 4.18046 98.8215 4.16619 97.9242C4.10913 97.812 4.10913 98.1485 4.07347 98.2046C4.08773 97.6437 4.0378 98.3167 4.0378 97.9242C4.0592 97.9242 4.05207 97.6998 4.07347 97.6437C4.30171 97.2511 4.20185 98.7093 4.27318 99.3263C4.27318 98.5972 4.35164 98.5972 4.34451 98.1485C4.38017 98.3167 4.36591 98.8776 4.41584 98.9337C4.37304 98.2046 4.44437 98.5972 4.50143 98.3167C4.52283 97.812 4.43723 98.0924 4.44437 97.6998C4.53709 97.6998 4.50143 97.9242 4.55136 98.0924C4.59415 98.0924 4.52996 97.7559 4.55136 97.4755C4.52283 97.4194 4.50856 97.6437 4.50143 97.4755C4.59415 96.6903 4.46576 95.6808 4.55136 94.6712C4.58702 95.0638 4.64408 94.7273 4.67975 95.0638C4.64408 95.2882 4.52283 96.4659 4.64408 96.5781C4.63695 96.2416 4.62268 96.1294 4.65835 95.9612C4.62982 96.522 4.75107 95.9612 4.74394 96.3538C4.72254 96.3538 4.70114 96.4099 4.70828 96.6342C4.7796 96.522 4.82953 96.522 4.85093 96.522C4.80813 96.1855 5.00072 96.3538 5.00785 96.2416C4.97932 96.4659 4.98645 97.139 5.02925 97.2511C5.07204 96.1294 5.03638 95.7929 4.99358 94.7834C5.02211 94.7834 5.05064 94.7834 5.06491 94.8956C5.04351 94.6151 5.00072 94.2226 5.04351 93.886C5.02211 93.886 5.00785 93.83 4.99358 93.7178C5.08631 93.1569 4.92939 91.1379 5.07918 91.5305C5.07918 91.3622 5.07918 91.194 5.07918 91.0257C5.05065 90.9696 5.00785 91.4183 4.99358 91.0257C5.00072 90.521 5.07204 90.521 5.04351 89.8479C4.92939 89.904 5.01498 89.0627 5.04351 88.9506C5.01498 88.8384 4.98645 88.6702 4.97219 88.4458C5.03638 87.9971 4.98645 87.8289 5.04351 87.0437C4.97932 86.9315 5.00785 87.4924 4.97219 87.5485C4.95079 87.3241 4.97219 86.6511 4.97219 86.5389C5.00072 86.5389 4.97932 86.8754 5.00785 86.9315C5.00072 86.5389 5.05778 87.268 5.06491 86.8194C5.00785 86.8754 4.96505 86.2585 5.00785 86.0342C5.03638 86.0342 5.01498 86.3707 5.04351 86.4268C5.05778 85.8098 4.97932 85.8098 5.02925 85.249C4.99358 84.9125 4.92939 85.4733 4.92226 84.9686C4.96505 84.8003 4.91512 83.959 4.95792 83.7908C4.96505 84.2394 4.97932 84.2955 4.95792 84.6881C4.99358 84.7442 5.00785 84.9686 5.02925 85.0807C5.02925 84.7442 5.10057 84.9125 5.10057 84.576C4.97932 84.632 5.03638 83.7908 5.00785 83.3982C5.00072 83.5103 5.00785 83.6786 4.99358 83.6786C4.98645 83.5103 4.95079 82.8934 4.97219 82.8934C5.00072 83.0056 5.02925 83.3421 5.04351 82.8934C4.95792 82.8373 5.03638 82.2204 5.06491 82.1082C5.02212 81.9961 4.99358 82.1082 4.99358 81.4913C5.07918 81.6035 5.04351 81.323 5.06491 81.2109C5.08631 81.2109 5.09344 81.3791 5.10057 81.4913C5.06491 81.5474 5.02212 81.5474 5.02925 81.8839C5.10771 81.6595 5.16477 81.323 5.15764 80.4818C5.13624 80.1453 5.10057 80.7061 5.08631 80.3696C5.1505 80.0892 5.1505 79.1918 5.08631 79.4722C5.07918 78.9675 5.15764 79.1357 5.14337 78.5749C5.08631 78.4627 5.10771 78.9114 5.07204 78.9675C5.08631 78.4066 5.09344 77.7897 5.03638 77.6775C5.02925 77.2849 5.03638 77.0045 5.08631 77.0606C5.08631 77.2288 5.05778 77.341 5.08631 77.4532C5.13624 77.1728 5.11484 76.7802 5.10771 76.2754C5.16477 76.3876 5.13624 75.995 5.14337 75.7706C5.17903 76.0511 5.1933 75.7145 5.25036 75.7706C5.25036 75.5463 5.2361 75.322 5.2147 75.2659C5.2147 75.8267 5.12197 75.2659 5.12911 74.9854C5.1719 74.8172 5.16477 74.9854 5.2147 74.8733C5.22896 74.4807 5.16477 74.5929 5.16477 74.3685C5.20757 74.3685 5.1719 73.9198 5.16477 73.8638C5.1933 73.9198 5.1933 74.0881 5.2147 74.1442C5.20043 73.6955 5.24323 73.6394 5.22896 73.2468C5.20043 73.1907 5.18617 73.4151 5.1719 73.2468C5.17904 72.9103 5.18617 72.7981 5.22896 72.4616C5.18617 72.1251 5.10771 73.0786 5.07204 72.7421C5.07204 72.3495 5.1719 72.1812 5.10771 71.7325C5.12911 71.7325 5.15764 71.7325 5.17904 71.7325C5.1719 71.1717 5.17904 70.6669 5.25036 70.9473C5.2147 69.7696 5.20043 68.76 5.28603 67.5823C5.2575 67.5823 5.22896 67.5823 5.1933 67.5823C5.20043 67.3579 5.16477 67.2457 5.1933 67.1897C5.22896 67.5262 5.30029 67.5262 5.30029 66.9092C5.27889 66.5727 5.24323 67.1336 5.22896 66.7971C5.32169 65.8997 5.2361 64.6658 5.28603 63.3198C5.25036 63.2076 5.22896 63.7124 5.2147 63.3198C5.24323 63.0394 5.27889 62.7589 5.28603 62.3103C5.24323 62.3103 5.2147 62.2542 5.1933 62.0298C5.1933 61.7494 5.20757 61.6373 5.25036 61.6373C5.25036 61.8616 5.26463 61.9738 5.28603 62.0298C5.29316 61.9177 5.30029 61.8616 5.32169 61.9177C5.30029 61.5812 5.28603 60.9081 5.37875 61.0203C5.40015 60.2912 5.35022 60.7399 5.32169 60.5156C5.40015 60.0669 5.36449 59.506 5.34309 58.7208C5.31456 58.7208 5.27889 58.7769 5.27176 58.6087C5.32169 58.4965 5.25036 58.2722 5.27176 57.9917C5.35022 57.7113 5.33596 58.1039 5.32169 58.6087C5.41441 58.3843 5.33596 57.6552 5.30742 57.3187C5.32169 56.4774 5.42868 55.6923 5.34309 54.851C5.34309 54.9632 5.28603 55.2436 5.29316 54.9632C5.35735 54.5145 5.40728 53.5049 5.34309 52.888C5.40728 52.3832 5.38588 51.6541 5.34309 50.9811C5.35735 50.9811 5.37875 50.9811 5.39302 50.9811C5.38588 50.4764 5.37875 50.3081 5.34309 49.8033C5.40015 49.4108 5.37162 49.0182 5.35735 48.5134C5.37875 48.5134 5.40728 48.5134 5.42868 48.5134C5.43581 47.2234 5.40015 45.9896 5.41442 44.8118C5.42155 44.1388 5.49288 43.634 5.50001 43.1293C5.50001 43.0171 5.40728 42.4562 5.47861 42.3441C5.44295 42.2319 5.42155 42.7367 5.40728 42.3441C5.42868 40.998 5.44295 40.325 5.45721 38.979C5.42868 38.979 5.39302 39.0351 5.38589 38.8668C5.40728 38.8107 5.42155 38.6985 5.45721 38.7546C5.48574 37.5208 5.40015 36.7917 5.45721 36.0626C5.42868 35.726 5.38589 36.2869 5.37162 35.9504C5.40728 35.726 5.43582 35.8943 5.47861 35.9504C5.51427 35.3895 5.41442 35.7261 5.40728 35.4456C5.40728 35.2774 5.40728 35.1091 5.40728 34.9409C5.51427 35.1652 5.47861 33.707 5.42155 34.1557C5.46435 34.2118 5.43582 34.7165 5.40728 34.6604C5.39302 34.4361 5.38589 33.3144 5.45721 33.8752C5.40015 33.3705 5.40015 32.8657 5.47148 32.4731C5.43582 32.1927 5.35022 32.7536 5.36449 31.9684C5.41442 32.0805 5.40728 31.8001 5.45008 31.8562C5.46435 31.1832 5.42155 31.071 5.48574 30.4541C5.44295 30.2858 5.41442 30.1176 5.36449 30.3419C5.36449 30.1176 5.36449 29.8932 5.36449 29.725C5.46435 29.6689 5.47861 28.8837 5.47148 28.0424C5.43582 28.0424 5.41442 27.9303 5.40015 27.762C5.39302 27.762 5.50001 26.472 5.47148 27.1451C5.51428 26.0795 5.48574 24.3969 5.42155 24.1726C5.52854 23.9482 5.45008 23.2752 5.49288 22.6583C5.47148 22.5461 5.43582 22.4339 5.42155 22.2657C5.44295 22.2657 5.47148 22.2657 5.47148 22.1535C5.37875 22.0974 5.47861 21.7609 5.47148 21.5366C5.43582 21.144 5.38589 21.5927 5.36449 21.144C5.37875 20.8636 5.45721 21.0318 5.45008 20.6392C5.41442 20.527 5.39302 21.0318 5.37875 20.6392C5.37875 20.527 5.37875 20.471 5.37875 20.3588C5.42155 20.3027 5.45008 20.3588 5.46435 20.471C5.42868 19.4614 5.41442 18.8445 5.41442 18.0032C5.35022 17.7789 5.40015 18.4519 5.36449 18.3958C5.40729 16.4329 5.40015 14.4138 5.29316 13.236C5.30743 12.7313 5.32883 12.2265 5.34309 11.7217C5.17191 11.6096 5.3003 9.42225 5.17904 8.91749C5.15051 9.36616 5.20757 9.87093 5.15764 10.3196C5.13624 9.81484 5.12911 9.64659 5.05065 9.81485C5.12911 9.19791 4.94366 9.19791 5.02925 8.63706C5.00072 8.58098 4.98646 8.80532 4.97933 8.63706C4.97933 8.30055 4.98646 8.07621 5.01499 8.02012C5.01499 8.58097 5.04352 8.02012 5.07205 8.02012C5.08632 8.18838 5.09345 8.35664 5.08632 8.63706C5.12911 8.63706 5.17191 8.63706 5.19331 8.52489C5.20044 7.96405 5.17904 7.57145 5.15764 7.23494C5.12911 7.23494 5.10058 7.23494 5.06492 7.23494C5.07918 6.50584 4.98646 6.56192 4.97933 5.94499C4.89373 6.05716 4.85807 5.77674 4.85807 5.32806C4.76535 5.1598 4.71542 5.44022 4.67975 4.93546C4.67262 5.21588 4.61556 5.04763 4.60843 5.32806C4.67262 5.32806 4.57276 5.77674 4.62269 5.72065C4.62982 5.60848 4.65122 5.38414 4.65835 5.60848C4.62269 5.72065 4.66549 6.33758 4.62269 6.39367C4.55136 5.32806 4.38731 5.72065 4.33738 4.59895C4.36591 4.54287 4.36592 4.20635 4.39445 4.09418C4.43011 4.0381 4.50857 4.26244 4.5157 3.98202C4.48004 3.86985 4.44437 3.75768 4.40871 3.58942C4.45151 3.53334 4.40871 2.91641 4.44437 2.80424C4.38731 2.80424 4.40158 2.35556 4.39445 2.01905C4.30885 2.35556 4.32312 1.40212 4.23753 1.40212C4.24466 1.90688 4.23039 2.24338 4.20186 2.41164C4.25179 2.57989 4.30885 2.74815 4.34452 3.02858C4.34452 3.19683 4.32312 3.19683 4.33025 3.42117C4.35878 3.47725 4.37305 3.25291 4.38018 3.42117C4.32312 3.64551 4.32312 3.92593 4.38018 3.53334C4.36591 4.59895 4.25892 4.26244 4.1876 4.82329C4.21613 4.37461 4.1876 3.53334 4.11627 3.81376C4.15193 3.36508 4.11627 2.5799 4.08061 2.29947C4.08774 2.01905 4.13054 2.07513 4.13767 1.79471C4.08774 1.17778 3.99502 0.84127 3.93795 0.280421C3.86663 0.392591 3.87376 0.280421 3.7953 0.280421C3.78104 0.785185 3.70971 0.841263 3.68831 1.28994C3.70971 1.51428 3.74537 2.29947 3.72397 2.46773C3.55279 2.07513 3.4244 1.23386 3.26035 1.17777C3.23182 1.57037 3.26748 1.8508 3.28175 2.35556C3.19615 2.74815 3.13196 2.46773 3.0321 2.35556C3.02497 2.07513 3.0963 1.73862 3.04637 1.57037ZM5.11484 81.3791C5.07918 81.3791 5.07918 81.0426 5.07918 80.7622C5.1505 80.7061 5.12911 81.0426 5.11484 81.3791ZM4.45863 98.0924C4.40157 98.3167 4.4301 97.3072 4.3873 97.812C4.36591 97.812 4.37304 97.5876 4.36591 97.4194C4.38017 97.4194 4.38017 97.3633 4.3873 97.3072C4.42297 97.4194 4.4515 97.6998 4.45863 98.0924ZM4.18759 97.0268C4.23039 97.139 4.31598 97.6437 4.33024 97.5316C4.3873 97.6998 4.30171 97.8681 4.29458 98.0363C4.27318 97.6437 4.19472 97.5876 4.18759 97.0268ZM4.00927 110.151C3.98787 110.487 4.00214 109.029 3.97361 110.038C3.95221 109.982 3.95934 109.702 3.95934 109.534C4.02354 109.758 4.07347 109.309 4.06633 109.926C4.08773 109.814 4.102 109.646 4.102 109.422C4.14479 109.758 4.0592 110.207 4.17332 109.926C4.17332 110.038 4.17332 110.207 4.17332 110.319C4.09486 110.487 4.04494 109.422 4.00927 110.151ZM2.31882 113.123C2.36875 113.067 2.39728 113.179 2.39015 113.516C2.34022 113.516 2.31169 113.46 2.31882 113.123ZM2.49715 0.897349C2.52568 1.12169 2.56848 1.62645 2.53282 1.90688C2.49715 1.73862 2.47575 1.28994 2.49715 0.897349ZM1.69116 2.46773C1.64836 2.74815 1.74109 3.64551 1.69116 4.0381C1.68403 3.47726 1.5913 2.01905 1.74109 1.96297C1.74822 2.41165 1.76962 2.69206 1.74109 3.14074C1.70542 2.9164 1.70542 2.5799 1.69116 2.46773ZM2.29744 1.96297C2.3759 2.13122 2.25464 2.69206 2.3331 2.97249C2.27604 2.86032 2.26891 3.08466 2.22611 3.08466C2.26891 2.80424 2.2903 2.41165 2.29744 1.96297ZM3.36734 1.96297C3.36734 2.07514 3.34594 2.07513 3.33168 2.07513C3.33168 2.41164 3.36021 2.46773 3.3816 2.5799C3.34594 2.97249 3.31741 2.29947 3.29601 2.1873C3.30315 1.96296 3.33168 1.90688 3.36734 1.96297ZM2.39016 2.5799C2.42582 2.63598 2.40443 3.08466 2.46149 2.97249C2.45436 3.19683 2.39016 3.08466 2.40443 3.47726C2.38303 3.86985 2.38303 2.5799 2.34737 3.36509C2.30457 3.14075 2.39016 2.86032 2.39016 2.5799ZM1.47718 3.98202C1.50571 4.26244 1.53424 4.48678 1.5485 4.87938C1.5913 4.93546 1.5699 4.48679 1.60557 4.48679C1.5913 4.09419 1.5699 4.59896 1.53424 4.48679C1.5485 4.37462 1.56277 4.15027 1.53424 4.09418C1.5485 3.70159 1.5913 4.15027 1.62696 4.09418C1.6341 4.26244 1.60557 4.76721 1.64836 4.71112C1.56277 5.21589 1.6127 4.93546 1.5913 5.49631C1.52711 5.38414 1.47004 5.27197 1.44865 5.77673C1.43438 5.49631 1.38445 5.38414 1.39872 4.87938C1.37019 4.93546 1.35592 5.04763 1.32739 5.1598C1.33452 5.38414 1.36305 5.49631 1.36305 5.77673C1.30599 5.66456 1.29886 5.88891 1.25606 5.88891C1.21327 5.5524 1.31313 5.44023 1.29173 4.87938C1.37019 4.99155 1.39872 4.7672 1.38445 4.26244C1.42012 4.4307 1.44151 4.59896 1.47004 4.76721C1.51997 4.71112 1.48431 4.26244 1.47718 3.98202ZM1.69116 5.27197C1.6127 5.10372 1.68403 4.48678 1.70542 4.26244C1.76962 4.54287 1.66976 4.82329 1.69116 5.27197ZM4.08061 5.38414C4.09487 4.93546 4.1234 5.38414 4.1876 5.27197C4.17333 5.49631 4.08774 5.60848 4.1876 5.88891C4.18047 6.11325 4.209 6.67409 4.15193 6.50584C4.15907 5.77673 4.10914 5.72065 4.08061 5.38414ZM1.67689 5.38414C1.69829 5.49631 1.71256 5.72065 1.73395 5.88891C1.72682 6.2815 1.69116 6.39367 1.66263 6.67409C1.59843 6.2815 1.68403 5.8889 1.67689 5.38414ZM1.15621 5.66456C1.2204 5.44022 1.17047 6.11324 1.21327 6.05715C1.199 6.22541 1.17047 6.33758 1.12768 6.33758C1.14194 6.16932 1.17047 6.05716 1.15621 5.66456ZM1.90514 6.16933C1.88374 6.16933 1.87661 6.22541 1.86948 6.2815C1.82668 6.33758 1.87661 5.72065 1.81955 5.88891C1.82668 5.49631 1.92654 5.66457 1.90514 6.16933ZM3.72397 6.05715C3.8167 6.44975 3.93795 6.67409 3.99502 6.95452C3.88089 7.40319 3.80957 6.05716 3.72397 6.67409C3.67404 6.56192 3.7525 6.39366 3.72397 6.05715ZM4.06634 6.56192C4.1234 6.73018 4.02355 7.29102 4.10201 7.34711C4.02355 7.79579 4.01641 6.78626 4.06634 6.56192ZM4.79388 6.84235C4.80814 6.61801 4.82954 6.84235 4.85094 6.84235C4.8438 7.06669 4.8438 7.40319 4.79388 7.34711C4.77961 7.12277 4.85094 6.89843 4.79388 6.84235ZM0.963623 14.0212C0.992154 14.1895 1.03495 14.3016 1.07061 14.4138C1.07061 14.6942 1.02782 14.6942 0.985021 14.6942C0.963623 14.526 0.956491 14.3016 0.963623 14.0212ZM1.07061 15.3112C1.12054 15.199 1.05635 15.9281 1.10628 15.8159C1.07775 15.9842 0.977889 16.0403 0.963623 15.9281C0.985021 15.5355 1.06348 15.9842 1.07061 15.3112ZM1.92654 17.8911C1.898 18.1715 1.91227 18.7323 1.84094 18.6762C1.85521 18.2837 1.86234 17.8911 1.92654 17.8911ZM1.86947 19.181C1.91227 18.8445 1.84094 19.6297 1.90514 19.5736C1.898 19.7979 1.87661 19.854 1.83381 19.854C1.84808 19.7419 1.86234 19.5175 1.83381 19.4614C1.84094 19.2932 1.86947 19.3493 1.86947 19.181ZM1.35592 19.181C1.37019 19.5736 1.30599 19.4614 1.29886 19.6858C1.25606 19.5175 1.29886 19.0128 1.35592 19.181ZM2.39016 19.5175C2.39016 19.854 2.39016 20.1345 2.36876 20.3027C2.32597 20.1345 2.41156 19.4054 2.31883 19.7979C2.31883 19.5736 2.34736 19.5175 2.39016 19.5175ZM0.942225 19.7979C0.985021 19.9101 0.920827 20.3027 0.942225 20.6953C0.906561 20.4149 0.906561 20.0223 0.942225 19.7979ZM0.977888 20.3027C1.02782 20.3588 1.04922 20.6392 1.04922 21.0879C1.13481 21.0879 1.06348 20.6953 1.09914 20.471C1.1776 20.6392 1.09914 20.9196 1.09914 21.2562C1.05635 21.2562 1.01355 21.2562 0.992154 21.144C0.992154 20.9757 0.992153 20.8075 1.00642 20.7514C1.00642 20.5831 0.970756 20.5831 0.977888 20.3027ZM1.2632 20.5831C1.2418 20.8075 1.25606 21.3683 1.1776 21.2001C1.1776 21.0318 1.1776 20.8636 1.1776 20.6953C1.199 20.5831 1.2204 20.5271 1.2632 20.5831ZM0.963623 21.4805C0.920827 21.5366 0.892296 21.4805 0.878031 21.3683C0.870898 20.6953 0.985021 20.6953 0.963623 21.4805ZM1.24893 22.0974C1.24893 21.817 1.29173 21.817 1.33452 21.817C1.34166 22.2096 1.2632 22.2657 1.24893 22.0974ZM0.977888 25.0699C1.01355 25.4625 0.927959 26.0795 0.906561 26.472C0.856632 26.3599 0.949357 25.8551 0.870897 25.8551C0.835234 25.7429 0.892296 25.6308 0.885163 25.8551C0.963623 25.8551 0.95649 25.3504 0.977888 25.0699ZM5.40015 25.1821C5.45721 25.2382 5.42868 25.6869 5.41442 25.9673C5.37875 25.9673 5.41442 25.4064 5.40015 25.1821ZM0.870897 27.2572C0.892295 27.3133 0.906561 27.4255 0.906561 27.6498C0.892295 27.762 0.842367 27.7059 0.849499 28.0424C0.778173 27.8742 0.856632 27.4816 0.870897 27.2572ZM0.906559 41.7832C0.963621 41.7271 1.01355 42.0636 0.977886 42.288C0.970754 42.0076 0.899427 42.1758 0.906559 41.7832ZM1.14194 44.9801C1.1776 44.5314 1.199 45.2605 1.22753 45.2605C1.19187 45.7092 1.17047 44.9801 1.14194 44.9801ZM1.10627 47.1674C1.07061 47.1113 1.07061 46.27 1.14194 46.5504C1.12054 46.7187 1.12054 47.0552 1.1562 47.0552C1.16334 47.4478 1.10627 46.7187 1.10627 47.1674ZM1.03495 47.1674C1.02068 47.2795 0.999284 47.4478 0.985019 47.56C0.985018 47.8965 1.04921 47.7843 1.07061 47.9526C0.956488 48.6256 0.93509 46.7748 1.03495 47.1674ZM1.08488 52.0467C1.07061 52.4393 1.07774 52.9441 1.03495 53.0563C1.07061 53.3928 1.10627 53.8975 1.1776 53.561C1.18473 54.1219 1.12054 53.8415 1.1562 54.3462C1.09201 54.3462 1.12767 53.561 1.03495 53.8415C0.992151 53.2806 1.07061 52.5515 0.985018 52.2711C0.999283 52.1028 1.05635 52.1589 1.08488 52.0467ZM1.42724 54.1219C1.49857 54.0658 1.44864 54.851 1.46291 55.1314C1.39871 54.9632 1.45578 54.6266 1.42724 54.1219ZM1.10627 56.814C1.11341 56.4774 1.1348 56.9822 1.1776 56.814C1.199 57.2065 1.12054 56.9261 1.14194 57.3187C1.07061 57.3187 1.14194 56.814 1.10627 56.814ZM1.28459 56.9261C1.30599 56.9822 1.29886 57.2626 1.30599 57.4309C1.26319 57.4309 1.19187 56.7579 1.199 57.5431C1.09914 57.2626 1.24179 57.0944 1.28459 56.9261ZM1.24893 57.7113C1.30599 57.5991 1.29886 57.9357 1.35592 57.8235C1.32739 58.0478 1.23466 58.2722 1.24893 57.7113ZM1.42724 65.0584C1.44151 64.8902 1.45577 65.1145 1.49857 64.9463C1.49857 65.1706 1.49144 65.451 1.51284 65.451C1.49144 65.7875 1.45577 65.0584 1.42724 65.0584ZM1.5699 66.068C1.61983 66.1801 1.5485 66.4045 1.5699 66.6849C1.51284 66.5727 1.5057 66.7971 1.46291 66.7971C1.42011 66.5166 1.49144 66.5727 1.4843 66.1801C1.51997 66.5727 1.5485 66.6849 1.5699 66.068ZM1.61983 68.2553C1.5699 67.5262 1.69829 68.4796 1.70542 67.8627C1.78388 68.4796 1.62696 68.0309 1.61983 68.2553ZM1.47717 68.5357C1.47717 68.9283 1.45577 69.1526 1.44151 69.433C1.42011 69.377 1.41298 69.2087 1.39158 69.1526C1.41298 68.8722 1.42011 68.4796 1.47717 68.5357ZM1.60556 68.5357C1.5485 68.76 1.64122 69.4331 1.64122 68.8161C1.66262 68.8722 1.65549 69.0965 1.67689 69.0965C1.61983 69.1526 1.61983 69.6574 1.55563 69.6013C1.5699 69.2648 1.59129 68.9283 1.51997 68.9844C1.5271 68.6479 1.56276 68.5357 1.60556 68.5357ZM1.49857 69.433C1.5485 69.3209 1.4843 70.05 1.53423 69.9378C1.5057 69.9378 1.41298 69.9939 1.41298 69.5452C1.46291 69.4891 1.47717 69.8256 1.49857 69.433ZM1.76248 69.5452C1.74108 69.9939 1.73395 69.9939 1.72682 70.3304C1.63409 70.1621 1.64836 70.723 1.5699 70.6108C1.5699 70.4426 1.5699 70.2743 1.5699 70.1061C1.66262 70.723 1.68402 69.7135 1.76248 69.5452ZM1.71255 71.7325C1.73395 71.7325 1.74821 71.7325 1.76961 71.7325C1.76248 72.0129 1.74821 72.2373 1.73395 72.5177C1.69115 72.2934 1.74821 72.069 1.71255 71.7325ZM5.11484 74.3124C5.16477 74.5929 5.08631 74.9294 5.04351 74.9294C5.05778 74.6489 5.10771 74.5929 5.11484 74.3124ZM4.97219 77.6214C5.00072 77.6214 5.00785 78.5749 4.95792 78.4066C4.94366 78.014 4.97219 77.9579 4.97219 77.6214ZM1.96219 82.1082C1.94793 82.5008 1.91226 82.2765 1.8766 82.2204C1.8766 81.94 1.9408 81.94 1.96219 82.1082ZM4.60129 82.2765C4.64408 82.3886 4.61555 83.0617 4.56562 82.8934C4.55849 82.613 4.59415 82.5008 4.60129 82.2765ZM4.79387 82.5008C4.83667 82.4447 4.8652 82.5008 4.87946 82.613C4.82953 82.9495 4.8652 83.2299 4.8438 83.6225C4.8224 83.286 4.7796 83.0056 4.80813 83.6225C4.71541 83.5103 4.85806 82.9495 4.79387 82.5008ZM1.96219 83.1738C1.95506 82.9495 1.89087 83.0617 1.90513 82.6691C1.94793 82.6691 1.95506 82.8934 2.01212 82.7812C2.02639 83.1738 1.95506 82.9495 1.96219 83.286C1.9408 83.286 1.94793 83.1738 1.96219 83.1738ZM3.28174 83.959C3.37446 83.8469 3.25321 84.5199 3.3174 84.576C3.26034 85.0807 3.25321 84.1834 3.28174 83.959ZM4.60129 84.0712C4.67261 83.959 4.67261 84.6881 4.60129 84.576C4.60129 84.4077 4.60129 84.2394 4.60129 84.0712ZM4.25892 84.1834C4.27318 84.2955 4.30171 84.2955 4.33024 84.2955C4.26605 84.4638 4.31598 85.4733 4.22325 85.4733C4.26605 85.249 4.26605 84.7442 4.25892 84.1834ZM1.90513 84.576C1.9194 84.576 1.9194 84.7442 1.92653 84.8564C1.94793 85.0246 2.00499 84.9686 1.97646 85.4733C1.9408 85.3051 1.898 85.1368 1.90513 84.576ZM4.8652 84.576C4.83667 84.8564 4.82953 84.8003 4.85093 85.1929C4.801 85.249 4.80813 84.9125 4.79387 84.6881C4.81527 84.632 4.83667 84.576 4.8652 84.576ZM3.81669 85.0807C3.82382 84.9125 3.85949 84.9686 3.88802 84.9686C3.90228 85.249 3.94508 85.5855 3.90228 85.8659C3.83809 85.6977 3.89515 85.4172 3.86662 85.0807C3.85235 85.0807 3.83096 85.0807 3.81669 85.0807ZM4.38731 85.0807C4.40157 85.0807 4.4087 85.0807 4.42297 85.0807C4.42297 85.1929 4.4301 85.1929 4.43723 85.1929C4.42297 85.3611 4.41584 85.5294 4.42297 85.8098C4.36591 85.6977 4.4087 85.5855 4.38731 85.0807ZM4.52996 85.1929C4.54423 85.1929 4.56562 85.1929 4.57989 85.1929C4.57989 85.3051 4.55849 85.3051 4.54423 85.3051C4.54422 85.5294 4.55849 85.7537 4.57989 85.8098C4.53709 86.1463 4.50143 85.6416 4.52996 85.1929ZM4.75821 85.1929C4.78674 85.4172 4.82953 85.5294 4.82953 85.9781C4.80813 86.0342 4.78674 85.4733 4.7796 85.8659C4.74394 85.7537 4.72967 85.4172 4.75821 85.1929ZM4.97219 85.4733C5.02925 85.6977 4.92226 85.8098 4.95792 86.2585C4.92939 86.0902 4.87946 86.1463 4.88659 85.7537C4.92939 85.7537 4.97219 85.7537 4.97219 85.4733ZM3.49572 86.3707C3.46006 86.3146 3.41726 86.3146 3.42439 85.9781C3.47432 85.8659 3.49572 85.8659 3.49572 86.3707ZM4.03067 86.2585C4.06634 85.922 4.09487 86.7072 4.11626 86.8754C4.10913 87.1559 4.06634 86.7072 4.04494 86.7633C4.04494 86.6511 4.0592 86.6511 4.0592 86.4828C4.0592 86.3707 4.05207 86.2585 4.03067 86.2585ZM4.38731 86.2585C4.43723 86.3146 4.41584 86.8194 4.45863 86.8754C4.4301 87.2119 4.36591 86.7072 4.38731 86.2585ZM3.42439 86.7633C3.45292 86.8194 3.46719 86.9315 3.49572 87.0437C3.48859 87.4363 3.403 87.268 3.42439 86.7633ZM4.18759 87.1559C4.25178 87.6606 4.27318 87.0437 4.33024 87.268C4.30171 87.6606 4.21612 87.7728 4.15193 87.5485C4.15906 87.3802 4.18759 87.3241 4.18759 87.1559ZM4.65122 87.268C4.67975 87.0437 4.63695 87.6606 4.68688 87.7728C4.72967 87.6606 4.75821 87.4924 4.80813 87.4924C4.79387 88.1093 4.82953 87.9971 4.87946 87.885C4.87233 88.0532 4.8438 88.0532 4.85093 88.2776C4.83666 88.1654 4.80813 88.1654 4.7796 88.1654C4.7796 88.0532 4.7796 87.885 4.7796 87.7728C4.73681 87.885 4.68688 87.9411 4.61555 87.885C4.62982 87.7728 4.64408 87.5485 4.61555 87.4924C4.62268 87.3802 4.65122 87.4363 4.65122 87.268ZM4.11626 87.7728C4.20899 87.941 4.17333 89.1188 4.17333 89.5675C4.102 89.5114 4.18759 88.8945 4.102 88.7823C4.13766 88.4458 4.11626 88.4458 4.11626 87.7728ZM4.52996 87.941C4.60129 88.1093 4.66548 88.3897 4.67261 89.1188C4.59415 88.558 4.58702 88.7823 4.52996 87.941ZM3.95934 88.0532C4.0378 87.9971 4.0378 88.5019 4.06633 88.8384C4.0378 89.0067 3.98074 88.2776 3.95934 88.0532ZM4.93652 88.0532C4.95792 88.0532 4.92939 88.7823 4.91512 88.9506C4.87233 88.7262 4.92226 88.1654 4.93652 88.0532ZM2.14051 88.1654C2.17617 88.3897 2.13338 88.3897 2.14051 88.7823C2.09058 88.8945 2.10485 88.5019 2.06918 88.5019C2.06205 89.231 2.09771 88.9506 2.11911 89.5114C2.08345 89.5114 2.09771 89.1749 2.04779 89.231C2.04779 88.8945 2.04779 88.558 2.04779 88.2215C2.09771 88.6702 2.06918 87.9971 2.14051 88.1654ZM4.20899 88.1654C4.24465 88.4458 4.25892 88.1093 4.31598 88.1654C4.28032 88.558 4.20899 89.0627 4.20899 88.1654ZM3.56705 88.558C3.62411 88.8384 3.57418 89.0627 3.60271 89.4553C3.58131 89.3993 3.57418 89.231 3.54565 89.1749C3.53852 88.8945 3.58131 88.9506 3.56705 88.558ZM3.296 88.8384C3.32454 88.558 3.37446 89.1188 3.403 89.231C3.33167 89.3432 3.42439 90.0162 3.3816 90.2405C3.33167 89.9601 3.3816 88.8945 3.296 88.8384ZM4.52996 89.4553C4.4943 89.5114 4.51569 89.9601 4.45863 89.8479C4.46577 89.231 4.44437 89.6797 4.38731 89.5675C4.40157 89.231 4.35164 89.3432 4.33024 89.1749C4.35164 89.0627 4.33738 88.7262 4.38731 88.7823C4.32311 89.3993 4.50856 89.1749 4.54422 89.3993C4.54422 89.6236 4.52996 89.5114 4.52996 89.4553ZM3.24608 88.9506C3.28174 88.9506 3.26034 89.3993 3.30314 89.3432C3.296 89.5114 3.26034 89.4553 3.23181 89.4553C3.21755 89.1749 3.23894 89.1188 3.24608 88.9506ZM3.58131 89.8479C3.61698 89.7919 3.63124 89.9601 3.65264 89.9601C3.63124 90.2405 3.53852 90.0162 3.55991 90.577C3.48859 90.4649 3.58131 90.1844 3.58131 89.8479ZM4.60129 90.8575C4.59415 90.6331 4.65835 90.2966 4.57989 90.3527C4.58702 90.1844 4.62268 90.2405 4.65121 90.2405C4.67261 90.2405 4.66548 90.0162 4.66548 89.8479C4.72967 90.0162 4.62982 91.1379 4.70114 91.0257C4.70114 91.2501 4.67975 91.3061 4.68688 91.5305C4.66548 91.5305 4.67261 91.3061 4.66548 91.1379C4.66548 90.9135 4.63695 90.8575 4.60129 90.8575ZM3.35307 90.7453C3.36733 90.4649 3.43866 90.521 3.47432 90.1284C3.47432 90.577 3.48145 91.0257 3.41726 91.0257C3.45292 90.4088 3.41013 90.7453 3.35307 90.7453ZM4.4943 90.7453C4.50143 90.577 4.51569 90.8014 4.55136 90.7453C4.48003 91.9231 4.48716 91.7548 4.4943 90.7453ZM2.10485 91.0257C2.16904 91.1379 2.11911 91.4183 2.10485 91.6426C2.08345 91.5305 2.06918 91.3622 2.06918 91.1379C2.09058 91.1379 2.09771 91.0818 2.10485 91.0257ZM2.11911 94.6151C2.14764 94.7834 2.16191 94.3908 2.2261 94.6151C2.21184 94.7273 2.13338 95.0077 2.19044 95.2321C2.18331 95.5686 2.12624 95.5125 2.08345 95.6247C2.05492 95.0638 2.18331 95.6247 2.15477 95.1199C2.14764 94.7834 2.12624 95.2882 2.08345 95.1199C2.06918 94.503 2.06205 94.1104 2.06918 93.3252C2.10485 93.1009 2.09058 93.3252 2.14051 93.3252C2.14051 92.9887 2.05492 93.1569 2.06918 92.7083C2.11911 92.8765 2.11911 92.1474 2.06918 92.3157C2.06918 92.0913 2.09058 92.0352 2.08345 91.8109C2.12624 91.7548 2.15478 91.8109 2.16904 91.9231C2.19044 92.4278 2.12624 92.3157 2.13338 92.7083C2.13338 92.9326 2.19044 92.7643 2.2047 92.9887C2.2047 93.1569 2.16904 93.1009 2.15477 93.1009C2.16904 93.3252 2.2261 93.2691 2.2047 93.7178C2.14764 93.7739 2.13338 93.3252 2.09771 93.6056C2.11911 93.9982 2.19044 94.1665 2.11911 94.6151ZM3.60271 92.0352C3.64551 92.2035 3.60271 92.9887 3.65977 93.0448C3.62411 93.4374 3.60271 93.213 3.63837 93.6617C3.62411 93.7739 3.59558 93.7739 3.56705 93.7739C3.58844 93.5495 3.58131 92.6522 3.60271 92.0352ZM4.60129 92.0352C4.62268 92.1474 4.66548 92.1474 4.69401 92.3157C4.71541 92.6522 4.62268 92.7083 4.67261 92.8204C4.66548 92.9887 4.62982 92.9326 4.60129 92.9326C4.64408 92.7643 4.57989 92.3157 4.56562 92.6522C4.50856 92.4839 4.60842 92.3157 4.60129 92.0352ZM4.4729 92.6522C4.4943 92.2596 4.53709 92.8765 4.52996 93.1569C4.50856 93.1569 4.4943 93.1569 4.4729 93.1569C4.4515 92.8765 4.52283 92.7083 4.4729 92.6522ZM4.54422 93.3252C4.57989 93.3252 4.56562 93.6617 4.61555 93.6056C4.57276 93.7739 4.57275 94.3347 4.52996 94.503C4.50143 94.0543 4.55849 93.886 4.54422 93.3252ZM4.25892 93.4374C4.28032 93.6056 4.34451 93.4934 4.36591 93.7178C4.33024 94.0543 4.30171 93.6056 4.25892 93.83C4.25892 93.7178 4.25892 93.5495 4.25892 93.4374ZM4.92226 94.1104C4.98645 94.6712 4.90799 95.5125 4.99358 95.9051C4.98645 96.0734 4.95792 96.0173 4.95792 95.9051C4.93652 95.9051 4.95079 96.0173 4.95792 96.0173C4.88659 96.4659 4.85093 95.3443 4.7796 95.7368C4.7796 95.1199 4.85806 95.6808 4.90086 95.6247C4.91512 95.6247 4.91512 95.5125 4.93652 95.5125C4.89373 95.0638 4.90799 94.503 4.92226 94.1104ZM3.79529 94.3347C3.84522 94.2786 3.85235 94.503 3.84522 94.8395C3.80242 94.8956 3.79529 94.6712 3.79529 94.3347ZM4.29458 95.2321C4.30171 95.6808 4.17332 95.9612 4.18759 95.3442C4.24465 95.4564 4.24465 95.176 4.29458 95.2321ZM3.81669 95.3442C3.87375 95.3442 3.89515 95.6247 3.95934 95.6247C3.93081 95.9051 3.80242 95.7929 3.81669 95.3442ZM4.42297 96.8025C4.4515 96.522 4.40157 95.7929 4.45863 95.4003C4.55136 95.7368 4.42297 96.1855 4.45863 96.9707C4.40157 97.1951 4.37304 96.3538 4.37304 96.9707C4.35877 96.9146 4.34451 96.8585 4.32311 96.8585C4.33738 96.7464 4.34451 96.6342 4.32311 96.5781C4.33024 96.4099 4.36591 96.4659 4.39444 96.4659C4.3873 96.6342 4.40157 96.7464 4.42297 96.8025ZM4.33024 97.3072C4.30885 97.0829 4.24465 97.139 4.25892 96.6903C4.30885 96.6903 4.33738 96.8585 4.33024 97.3072ZM2.08345 96.0173C2.09771 96.0173 2.11911 96.0173 2.14051 96.0173C2.14764 96.2416 2.12624 96.2416 2.10485 96.2977C2.11911 96.4659 2.16191 96.4659 2.19757 96.5781C2.16191 96.9707 2.17617 97.6998 2.09058 97.7559C2.09771 97.5316 2.12624 97.4194 2.12624 97.139C2.05492 97.4755 2.01925 97.2511 2.00499 97.9242C1.93366 97.7559 2.01212 97.2511 1.96932 96.9146C2.01212 97.2511 2.00499 97.139 2.07631 97.1951C2.06918 96.7464 2.11198 96.5781 2.08345 96.0173ZM3.04636 96.1294C3.09629 96.2416 3.02496 96.4659 3.04636 96.7464C3.03209 96.7464 3.02496 96.6342 3.0107 96.6342C3.00356 96.9146 3.03923 96.8585 3.06063 96.9146C3.03209 97.0829 3.00356 97.4194 2.97503 97.1951C2.99643 97.0268 2.9893 96.6342 2.9893 96.2977C3.01783 96.2977 3.04636 96.2977 3.04636 96.1294ZM3.60271 96.2977C3.63124 96.4099 3.67404 96.4099 3.65977 96.8025C3.62411 96.9146 3.60271 96.4099 3.58844 96.8025C3.53852 96.7464 3.60271 96.4659 3.60271 96.2977ZM3.11769 96.9146C3.16762 96.9146 3.15335 97.3633 3.22468 97.1951C3.19615 97.5876 3.16048 97.3633 3.10342 97.3072C3.11055 97.195 3.11769 97.0829 3.11769 96.9146ZM3.08202 97.1951C3.06776 97.3072 3.06063 97.4755 3.06776 97.6998C3.04636 97.6998 3.01783 97.6998 2.99643 97.6998C3.00356 97.3633 3.03923 97.2511 3.08202 97.1951ZM3.63837 97.5316C3.60984 97.5316 3.60271 97.6998 3.56705 97.6437C3.55278 97.8681 3.61697 98.0924 3.56705 98.1485C3.48145 98.1485 3.57418 97.6437 3.54565 97.2511C3.57418 97.1951 3.61697 97.6437 3.63124 97.2511C3.65264 97.7559 3.7097 97.9802 3.72397 98.5411C3.6669 98.485 3.65977 97.9802 3.63837 97.5316ZM3.99501 97.9242C4.03067 97.9242 4.00214 98.3728 4.00927 98.5411C3.98787 98.5411 3.95934 98.5411 3.93795 98.5411C3.93081 98.2607 3.96648 98.3167 3.99501 98.2607C3.99501 98.2046 3.99501 98.0924 3.99501 97.9242ZM4.03067 99.3824C4.01641 99.2141 4.00927 99.0458 4.00927 98.7654C4.102 98.7093 4.11626 98.5411 4.18759 98.6533C4.19472 99.1019 4.16619 99.3824 4.15193 99.6628C4.10913 99.5506 4.10913 99.2141 4.0806 99.0458C4.05207 99.2141 4.0592 99.5506 4.00927 99.5506C3.98074 99.4384 4.00927 99.3263 4.03067 99.3824ZM3.95934 98.9898C3.93081 99.4384 3.94508 99.3263 3.90228 99.6067C3.88088 99.3824 3.86662 99.1019 3.85235 98.8215C3.89515 98.5411 3.88802 99.1019 3.95934 98.9898ZM2.49714 99.7189C2.50428 99.9993 2.44721 99.8871 2.44721 100.111C2.48288 100.336 2.54707 99.6628 2.5542 100.504C2.49714 100.336 2.50428 100.56 2.43295 100.504C2.42582 100.055 2.42582 99.6628 2.49714 99.7189ZM2.6398 101.794C2.68259 101.626 2.71112 102.187 2.73252 101.794C2.75392 101.794 2.74679 102.018 2.74679 102.187C2.73252 102.187 2.73252 102.243 2.73252 102.299C2.72539 101.962 2.63266 102.243 2.6398 101.794ZM2.56847 102.187C2.50428 101.962 2.52567 102.299 2.46148 102.299C2.43295 101.85 2.5756 101.682 2.56847 102.187ZM2.51141 102.972C2.52567 102.691 2.597 103.084 2.597 103.364C2.53281 103.477 2.54707 103.084 2.51141 102.972ZM2.6398 103.869C2.63266 104.037 2.61127 104.206 2.60413 103.981C2.58274 103.981 2.58987 104.206 2.58987 104.374C2.53994 104.43 2.54707 104.093 2.53281 103.869C2.56847 103.589 2.60413 103.589 2.6398 103.869ZM2.47574 103.701C2.49714 103.701 2.47574 104.486 2.42582 104.318C2.41155 104.206 2.40442 104.037 2.40442 103.813C2.43295 103.869 2.47574 103.925 2.47574 103.701ZM3.79529 104.374C3.81669 104.206 3.85949 104.15 3.88088 103.981C3.91655 103.981 3.89515 104.43 3.93081 104.374C3.90228 104.767 3.87375 104.43 3.84522 104.654C3.84522 104.935 3.84522 105.271 3.84522 105.552C3.81669 105.552 3.80242 105.327 3.79529 105.552C3.77389 105.271 3.83095 104.823 3.79529 104.374ZM2.53281 104.486C2.56134 104.598 2.56134 104.879 2.56847 105.103C2.53281 105.215 2.49714 105.72 2.44721 105.383C2.43295 104.542 2.51854 105.103 2.53281 104.486ZM2.67546 104.767C2.71112 104.935 2.63266 105.047 2.67546 105.383C2.60413 105.44 2.62553 104.767 2.56847 104.767C2.63266 104.206 2.64693 105.159 2.67546 104.767ZM2.74679 104.879C2.78958 105.44 2.86091 104.374 2.87518 105.271C2.83238 104.879 2.79672 105.44 2.86091 105.552C2.82525 105.776 2.73252 105.383 2.71826 105.047C2.73252 105.047 2.73965 104.991 2.74679 104.879ZM2.60413 107.571C2.58987 108.132 2.58987 108.861 2.49714 108.861C2.54707 108.805 2.51854 108.132 2.56847 108.076C2.51854 107.963 2.52567 108.019 2.51854 107.683C2.53994 107.459 2.5542 107.795 2.60413 107.571ZM2.49714 106.954C2.52567 107.122 2.53994 107.122 2.56847 106.954C2.52567 106.786 2.54707 106.056 2.47574 106.056C2.48288 105.664 2.56134 105.832 2.58274 105.552C2.64693 105.888 2.6184 106.842 2.70399 106.954C2.68973 107.234 2.63266 107.234 2.63266 107.571C2.58987 107.402 2.49714 107.459 2.49714 106.954ZM3.06776 106.449C3.11055 106.617 3.10342 106.449 3.16048 106.561C3.16048 107.01 3.06062 106.673 3.03209 106.954C2.9893 106.842 3.07489 106.673 3.06776 106.449ZM3.92368 106.673C3.96648 106.617 3.98787 107.795 3.92368 107.683C3.95934 107.234 3.88802 107.178 3.92368 106.673ZM3.04636 107.459C3.09629 107.627 3.08202 108.132 3.06062 108.468C3.00356 108.244 3.05349 107.963 3.04636 107.459ZM2.76105 109.253C2.76105 109.029 2.76105 108.805 2.76105 108.636C2.81098 108.636 2.79672 108.412 2.83238 108.636C2.83238 108.749 2.81098 108.749 2.79672 108.749C2.79672 108.973 2.81811 109.029 2.81098 109.253C2.83238 109.253 2.83951 109.253 2.84664 109.141C2.90371 109.534 2.80385 109.253 2.76105 109.253ZM2.51141 109.646C2.53281 109.59 2.56847 109.534 2.6184 109.365C2.54707 109.87 2.597 109.814 2.6184 110.543C2.56134 110.599 2.5542 110.207 2.58273 110.038C2.52567 110.151 2.51854 109.926 2.47574 109.926C2.46148 109.646 2.58273 109.814 2.51141 109.646ZM4.24465 110.151C4.30884 109.926 4.33737 110.655 4.36591 110.768C4.35877 110.936 4.32311 110.88 4.29458 110.88C4.29458 110.543 4.28031 110.263 4.24465 110.151ZM2.81811 110.151C2.85378 110.375 2.83951 110.151 2.88944 110.151C2.88944 110.319 2.88944 110.487 2.88944 110.655C2.82525 109.982 2.84664 111.16 2.78245 110.768C2.80385 110.655 2.83238 110.543 2.81811 110.151ZM2.60413 111.16C2.5756 110.712 2.51854 111.272 2.51854 110.655C2.5756 110.655 2.597 110.88 2.66119 110.768C2.6398 111.272 2.70399 111.16 2.69686 111.553C2.66119 111.16 2.53281 111.945 2.53994 111.16C2.56847 110.992 2.5542 111.216 2.60413 111.16ZM3.90228 111.441C3.85235 111.609 3.95221 111.777 3.93794 112.058C3.86662 111.889 3.93794 112.618 3.86662 112.45C3.90228 112.001 3.86662 111.497 3.79529 111.833C3.81669 111.441 3.85235 111.104 3.90228 110.936C3.87375 111.497 3.95934 111.272 3.95934 111.721C3.92368 111.721 3.90941 111.609 3.90228 111.441ZM2.85378 112.45C2.83951 112.338 2.79671 112.45 2.76818 112.17C2.81811 111.833 2.74679 111.777 2.74679 111.385C2.76105 111.328 2.77532 111.272 2.78245 111.104C2.84664 111.328 2.81811 112.226 2.91084 112.282C2.89657 112.731 2.88231 113.123 2.87517 113.572C2.84664 113.572 2.84664 112.787 2.83951 113.46C2.76105 113.291 2.78245 112.562 2.85378 112.45ZM4.102 111.328C4.15193 111.328 4.14479 111.945 4.11626 112.114C4.0806 112.058 4.10913 111.553 4.102 111.328ZM2.33309 111.833C2.37589 111.833 2.36875 112.282 2.36875 112.618C2.30456 112.562 2.31883 112.114 2.33309 111.833ZM2.60413 111.833C2.6398 111.777 2.65406 111.945 2.67546 111.945C2.66833 112.114 2.64693 112.17 2.6398 112.338C2.68972 112.338 2.67546 112.114 2.71112 112.338C2.69686 112.787 2.74679 112.899 2.71112 113.123C2.6398 112.899 2.68972 112.899 2.6184 113.123C2.597 112.562 2.62553 112.338 2.60413 111.833ZM3.11769 113.628C3.10342 113.964 3.15335 113.908 3.15335 114.133C3.18901 114.133 3.16048 113.684 3.16761 113.516C3.23181 113.404 3.20328 114.189 3.18901 114.301C3.11769 114.077 3.11055 114.357 3.13195 114.806C3.07489 114.806 3.08202 114.413 3.0107 114.525C3.03923 114.357 3.11055 113.796 3.0107 113.74C3.13195 113.291 2.93937 113.291 3.06062 112.955C3.05349 112.787 3.03923 112.674 3.0107 112.674C3.02496 112.45 3.04636 112.226 3.09629 112.282C3.06062 112.506 3.09629 112.955 3.13195 112.674C3.13195 112.787 3.13195 113.347 3.11769 113.628ZM3.296 112.45C3.32453 112.506 3.31027 112.731 3.28174 112.731C3.28887 112.955 3.3388 112.843 3.3174 113.235C3.2746 113.291 3.24607 113.235 3.23181 113.123C3.23181 113.011 3.23181 112.843 3.23181 112.731C3.23894 112.562 3.296 112.731 3.296 112.45ZM4.0806 112.955C4.102 113.067 4.13053 113.123 4.17332 113.067C4.18046 113.347 4.15906 113.404 4.15192 113.572C4.102 113.46 4.13053 113.067 4.0592 113.291C4.07347 113.235 4.0806 113.179 4.0806 112.955ZM2.72539 113.123C2.75392 113.179 2.76818 113.347 2.76105 113.628C2.72539 113.628 2.72539 113.796 2.68972 113.74C2.67546 113.347 2.71826 113.347 2.72539 113.123ZM3.99501 113.235C4.07347 113.572 4.0164 114.581 3.95934 114.525C3.94508 113.964 3.98074 113.796 4.00927 113.628C4.00214 113.516 3.99501 113.404 3.99501 113.235ZM2.60413 113.516C2.6184 113.123 2.6398 113.628 2.67546 113.516C2.67546 113.852 2.67546 114.189 2.6184 114.133C2.61127 113.908 2.63266 113.908 2.6398 113.74C2.63266 113.628 2.62553 113.516 2.60413 113.516ZM3.3174 113.516C3.296 113.908 3.26747 113.908 3.23181 113.628C3.23181 113.291 3.296 113.291 3.3174 113.516ZM4.36591 113.628C4.38017 114.357 4.45863 113.628 4.52996 113.516C4.50856 113.964 4.48716 114.413 4.4729 114.918C4.48003 115.086 4.52282 115.086 4.52996 114.918C4.55849 114.974 4.53709 115.31 4.56562 115.31C4.53709 115.367 4.43723 115.871 4.55136 115.815C4.52996 116.32 4.51569 115.759 4.45863 115.815C4.42297 115.871 4.48716 116.152 4.44436 116.32C4.4729 116.376 4.48003 116.208 4.48003 116.04C4.50856 116.152 4.50856 116.432 4.51569 116.656C4.4087 116.6 4.40157 115.871 4.37304 115.254C4.35877 115.31 4.34451 115.367 4.32311 115.367C4.29458 115.535 4.29458 115.871 4.27318 115.983C4.21612 115.479 4.30884 114.974 4.39444 115.086C4.4087 115.198 4.41583 115.367 4.41583 115.591C4.43723 115.535 4.44436 115.367 4.46576 115.31C4.40157 115.198 4.41583 114.469 4.39444 114.021C4.37304 114.077 4.37304 114.301 4.33737 114.301C4.33737 114.469 4.37304 114.413 4.39444 114.413C4.40157 114.694 4.38017 114.75 4.37304 114.918C4.42297 114.694 4.25892 114.469 4.32311 114.918C4.24465 114.525 4.29458 114.133 4.36591 113.628ZM4.102 113.628C4.11626 113.684 4.13053 113.74 4.15192 113.74C4.15906 114.077 4.11626 114.077 4.0806 114.133C4.07347 113.852 4.09486 113.796 4.102 113.628ZM4.86519 113.74C4.89372 113.684 4.92939 114.245 4.86519 114.133C4.86519 114.245 4.87946 114.245 4.87946 114.413C4.93652 114.469 4.92939 114.077 4.95079 113.908C5.00071 114.077 4.92939 114.413 4.95079 114.806C4.85093 114.581 4.90086 115.254 4.87946 115.31C4.80813 115.198 4.85806 114.077 4.86519 113.74ZM2.76105 114.245C2.83238 114.189 2.81098 114.862 2.86804 114.862C2.86091 115.423 2.86091 115.31 2.85378 115.759C2.78958 115.647 2.83951 115.367 2.83238 114.974C2.78245 114.862 2.79671 115.254 2.77532 115.367C2.74679 115.03 2.78245 114.637 2.76105 114.245ZM2.68972 114.133C2.73965 113.572 2.84664 114.077 2.9251 113.852C2.9251 113.964 2.90371 113.964 2.88944 113.964C2.88944 114.189 2.91084 114.245 2.90371 114.469C2.88944 114.413 2.87517 114.301 2.86804 114.469C2.83951 113.908 2.75392 114.357 2.68972 114.133ZM3.88802 113.852C3.94508 113.908 3.92368 114.525 3.85235 114.357C3.85948 114.189 3.87375 114.077 3.88802 113.852ZM3.36733 114.413C3.41726 114.357 3.42439 114.581 3.42439 114.918C3.37446 114.974 3.36733 114.75 3.36733 114.413ZM2.72539 114.918C2.68259 115.479 2.78958 115.535 2.77532 116.208C2.74679 116.208 2.73252 116.32 2.72539 116.488C2.69686 116.208 2.68972 116.264 2.63266 116.376C2.61126 116.04 2.5756 115.647 2.63266 115.479C2.62553 115.31 2.58273 115.31 2.58273 115.479C2.52567 115.03 2.6184 114.637 2.66833 114.581C2.66833 115.142 2.6398 114.974 2.72539 114.918ZM3.28174 114.525C3.33167 114.637 3.34593 115.423 3.33167 115.535C3.30314 115.31 3.26747 115.086 3.28174 114.525ZM4.00927 114.637C4.08773 115.142 3.98074 115.31 3.92368 115.535C3.93794 115.142 4.00214 115.142 4.00927 114.637ZM3.10342 115.31C3.16048 114.974 3.18188 115.815 3.16048 116.208C3.11769 116.04 3.12482 115.927 3.06776 116.096C3.06776 115.815 3.14622 115.423 3.10342 115.31ZM2.54707 115.927C2.51141 115.983 2.53994 116.488 2.51141 116.544C2.44721 116.432 2.51854 116.04 2.49001 115.535C2.51141 115.759 2.5542 115.927 2.597 116.04C2.597 116.376 2.53994 116.096 2.54707 115.927ZM2.96077 115.927C2.9465 116.264 2.91797 116.432 2.87517 116.544C2.83238 116.264 2.88944 115.871 2.96077 115.927ZM3.28174 116.432C3.296 116.432 3.3174 116.432 3.33167 116.432C3.31027 116.825 3.38873 117.217 3.33167 117.442C3.28887 117.386 3.28174 117.105 3.28174 116.432ZM2.58273 116.6C2.597 116.881 2.68972 116.544 2.66833 116.993C2.62553 116.993 2.5756 116.993 2.58273 116.6ZM2.58273 117.498C2.53281 117.386 2.53994 117.666 2.49001 117.61C2.48288 117.161 2.58987 116.825 2.58273 117.498ZM3.15335 117.217C3.13908 117.89 3.23181 117.778 3.26034 118.395C3.20328 118.619 3.14622 117.89 3.10342 117.61C3.09629 117.33 3.15335 117.442 3.15335 117.217ZM4.04493 119.124C4.0592 119.124 4.0592 119.292 4.0592 119.405C4.0806 119.292 4.09486 119.124 4.09486 118.9C4.11626 119.012 4.13053 119.18 4.13053 119.405C4.16619 119.349 4.13766 118.732 4.20185 118.9C4.16619 118.788 4.102 118.283 4.0806 118.507C4.02354 117.946 4.23038 118.227 4.20185 117.498C4.23752 117.442 4.25178 117.61 4.27318 117.61C4.28745 117.89 4.18759 118.227 4.27318 118.227C4.23038 118.676 4.27318 119.012 4.22325 119.405C4.22325 119.573 4.25891 119.517 4.27318 119.517C4.19472 119.966 4.33024 121.368 4.22325 121.704C4.29458 121.816 4.23752 122.321 4.29458 122.321C4.23752 122.994 4.32311 123.555 4.27318 124.508C4.25891 124.508 4.25891 124.396 4.23752 124.396C4.23752 124.284 4.23038 124.284 4.22325 124.284C4.30884 123.948 4.19472 123.555 4.18759 123.106C4.23752 122.882 4.23752 121.704 4.17332 121.312C4.18045 121.592 4.18759 122.377 4.0806 122.489C4.0806 122.265 4.102 122.209 4.102 121.985C4.07346 122.041 4.08773 122.377 4.03067 122.265C4.02354 121.648 4.12339 121.816 4.13766 121.368C4.09486 121.255 4.07346 120.975 4.0164 120.975C3.99501 120.639 4.0806 120.358 4.06633 120.863C4.09486 120.919 4.09486 120.134 4.05207 120.358C4.102 120.134 4.09486 120.19 4.10913 119.853C4.0806 119.573 4.04493 119.517 4.04493 119.124ZM4.03067 118.507C3.99501 118.507 4.00927 118.844 3.95934 118.788C3.95221 118.507 3.97361 118.451 3.97361 118.283C4.0164 118.283 4.03067 118.507 4.04493 118.676C4.0378 118.844 4.03067 118.619 4.03067 118.507ZM4.95792 118.227C5.06491 118.563 4.90086 118.9 4.86519 119.012C4.83666 118.339 4.97932 118.9 4.95792 118.227ZM3.13908 118.395C3.14622 118.619 3.12482 118.676 3.12482 118.507C3.06776 118.676 3.15335 119.012 3.10342 119.124C3.07489 119.012 3.06776 118.788 3.06776 118.507C3.09629 118.507 3.10342 118.339 3.13908 118.395ZM4.85093 120.414C4.90799 120.414 4.98645 121.143 4.88659 121.199C4.90799 120.695 4.82953 120.919 4.85093 120.414ZM3.995 131.463C4.05207 131.519 4.02353 131.968 4.00927 132.248C3.97361 132.248 4.00214 131.687 3.995 131.463Z" fill="white"></path>
</svg>