<svg width="112" height="151" viewBox="0 0 112 151" fill="none" xmlns="http://www.w3.org/2000/svg">
<path d="M17.1859 20.9051C11.8949 24.2124 5.05986 22.6353 1.75286 17.3439C-1.55514 12.0525 -0.0621295 5.08191 5.22887 1.77461L5.36487 1.6898C10.6559 -1.6176 17.5759 0.0952125 20.8829 5.38661C24.1899 10.678 22.6129 17.5129 17.3219 20.8203L17.1859 20.9051ZM82.7039 49.9555C89.0799 45.9695 95.6439 49.2255 98.8159 54.6025C101.818 59.7075 101.835 66.6775 95.5939 70.5785C85.5539 76.8545 73.3939 82.7565 60.1989 89.1165C48.7169 94.5955 36.3869 100.227 23.6509 106.112C15.4589 109.912 15.0859 118.069 19.0719 124.446C23.2269 131.094 31.3509 135.639 39.0849 130.806L78.9739 105.873C90.9139 98.4095 103.634 102.158 110.062 113.046C113.488 118.83 111.741 123.884 108.264 125.868C104.788 127.853 98.3429 128.107 96.2229 121.696L59.0469 144.933C43.1729 154.855 22.2269 150.022 12.3049 134.147C2.38286 118.273 7.07986 97.4115 25.4479 85.7425C1.41486 77.1785 3.21186 46.2435 26.0059 31.9966L37.5379 24.7883C42.8299 21.481 49.7999 22.9732 53.1079 28.2647C56.4149 33.5561 54.7869 40.6115 49.4959 43.9185L29.8229 56.2155C24.5309 59.5225 22.9029 66.5785 26.2099 71.8695C29.5179 77.1605 36.5729 78.7885 41.8649 75.4815L82.7039 49.9555Z" fill="white"/>
</svg>
